<svg width="24" height="25" viewBox="0 0 24 25" fill="none" xmlns="http://www.w3.org/2000/svg">
<path fill-rule="evenodd" clip-rule="evenodd" d="M13.7197 11.1554C13.8603 11.296 14.0511 11.375 14.25 11.375H17.25C17.4489 11.375 17.6397 11.296 17.7803 11.1554C17.921 11.0147 18 10.824 18 10.625C18 10.4261 17.921 10.2354 17.7803 10.0947C17.6397 9.95407 17.4489 9.87505 17.25 9.87505H14.25C14.0511 9.87505 13.8603 9.95407 13.7197 10.0947C13.579 10.2354 13.5 10.4261 13.5 10.625C13.5 10.824 13.579 11.0147 13.7197 11.1554ZM8.78033 8.59472C8.92098 8.73537 9 8.92614 9 9.12505V9.87505H9.75C9.94891 9.87505 10.1397 9.95407 10.2803 10.0947C10.421 10.2354 10.5 10.4261 10.5 10.625C10.5 10.824 10.421 11.0147 10.2803 11.1554C10.1397 11.296 9.94891 11.375 9.75 11.375H9V12.125C9 12.324 8.92098 12.5147 8.78033 12.6554C8.63967 12.796 8.44891 12.875 8.25 12.875C8.05108 12.875 7.86032 12.796 7.71967 12.6554C7.57901 12.5147 7.5 12.324 7.5 12.125V11.375H6.75C6.55108 11.375 6.36032 11.296 6.21967 11.1554C6.07902 11.0147 6 10.824 6 10.625C6 10.4261 6.07902 10.2354 6.21967 10.0947C6.36032 9.95407 6.55108 9.87505 6.75 9.87505H7.5V9.12505C7.5 8.92614 7.57901 8.73537 7.71967 8.59472C7.86032 8.45407 8.05108 8.37505 8.25 8.37505C8.44891 8.37505 8.63967 8.45407 8.78033 8.59472ZM19.875 21.5C20.0732 21.4999 20.271 21.4811 20.4656 21.4438C21.3478 21.2861 22.1313 20.785 22.6445 20.0504C23.1577 19.3157 23.3586 18.4076 23.2031 17.525H23.1937L21.6656 9.61255C21.6656 9.60317 21.6656 9.60317 21.6562 9.5938C21.4213 8.29768 20.739 7.1251 19.7282 6.28048C18.7174 5.43586 17.4422 4.97276 16.125 4.97192L7.875 5.00005C6.5516 4.99801 5.27001 5.46342 4.25631 6.31418C3.2426 7.16493 2.56193 8.34636 2.33437 9.65005V9.6688L0.806248 17.5344C0.728064 17.971 0.736937 18.4187 0.832355 18.8518C0.927773 19.2849 1.10785 19.6949 1.36225 20.0582C1.61664 20.4215 1.94033 20.731 2.31471 20.9687C2.68909 21.2065 3.10677 21.368 3.54375 21.4438C3.73519 21.4815 3.92987 21.5004 4.125 21.5C5.02014 21.4982 5.8787 21.1446 6.51562 20.5157L6.55312 20.4688L10.3687 16.25L13.6406 16.2313L17.4469 20.4688L17.4937 20.5157C18.1261 21.1458 18.9823 21.4998 19.875 21.5ZM19.0418 13.5137C18.2682 14.2873 17.219 14.7219 16.125 14.7219L10.0312 14.75C9.92745 14.7517 9.82504 14.7742 9.73005 14.816C9.63506 14.8579 9.5494 14.9183 9.47812 14.9938L5.4375 19.4657C5.15416 19.7431 4.79014 19.9236 4.39777 19.9812C4.00541 20.0387 3.6049 19.9704 3.25381 19.786C2.90273 19.6016 2.61915 19.3106 2.44383 18.9549C2.26852 18.5992 2.2105 18.1971 2.27812 17.8063L3.80625 9.92192C3.81383 9.90753 3.81708 9.89125 3.81562 9.87505C3.98927 8.92586 4.49091 8.06785 5.2329 7.45096C5.97489 6.83406 6.91006 6.49748 7.875 6.50005L16.125 6.47192C17.219 6.47192 18.2682 6.90652 19.0418 7.68011C19.8154 8.4537 20.25 9.50291 20.25 10.5969C20.25 11.6909 19.8154 12.7402 19.0418 13.5137ZM20.9062 13.5688L21.7219 17.8063C21.7895 18.1971 21.7315 18.5992 21.5562 18.9549C21.3808 19.3106 21.0973 19.6016 20.7462 19.786C20.3951 19.9704 19.9946 20.0387 19.6022 19.9812C19.2099 19.9236 18.8458 19.7431 18.5625 19.4657L15.6469 16.2219H16.125C17.0818 16.2228 18.0231 15.9797 18.8597 15.5154C19.6963 15.0512 20.4007 14.3812 20.9062 13.5688Z" fill="#5F5F5F"/>
</svg>
