<svg width="24" height="25" viewBox="0 0 24 25" fill="none" xmlns="http://www.w3.org/2000/svg">
<path fill-rule="evenodd" clip-rule="evenodd" d="M23.2497 12.4999C23.2497 12.8977 23.0917 13.2791 22.8105 13.5604L18.471 17.9007L20.646 20.0479C20.9662 19.9691 21.3035 19.998 21.6055 20.1303C21.9076 20.2625 22.1576 20.4908 22.3168 20.7796C22.476 21.0684 22.5355 21.4016 22.486 21.7277C22.4366 22.0537 22.2809 22.3543 22.0433 22.5829C21.8056 22.8115 21.4992 22.9554 21.1714 22.9921C20.8437 23.0288 20.513 22.9565 20.2306 22.7862C19.9482 22.6159 19.7299 22.3572 19.6095 22.0502C19.489 21.7432 19.4732 21.4051 19.5645 21.0882L17.4105 18.9612L13.0605 23.3104C12.7792 23.5916 12.3977 23.7496 12 23.7496C11.6023 23.7496 11.2208 23.5916 10.9395 23.3104L6.59925 18.9709L4.45275 21.1459C4.53164 21.4661 4.5027 21.8034 4.37042 22.1055C4.23814 22.4076 4.00992 22.6576 3.72111 22.8168C3.43231 22.9759 3.09906 23.0354 2.77303 22.986C2.44699 22.9365 2.14637 22.7809 1.91776 22.5432C1.68916 22.3055 1.54534 21.9991 1.50859 21.6714C1.47184 21.3437 1.54423 21.013 1.71452 20.7306C1.88481 20.4482 2.1435 20.2298 2.45048 20.1094C2.75747 19.989 3.09562 19.9732 3.4125 20.0644L5.53875 17.9097L1.18875 13.5604C0.907546 13.2791 0.749573 12.8977 0.749573 12.4999C0.749573 12.1022 0.907546 11.7207 1.18875 11.4394L5.53875 7.09019L3.4125 4.93544C3.09495 5.0273 2.75595 5.0118 2.4481 4.89133C2.14026 4.77087 1.88077 4.55218 1.7099 4.26919C1.53903 3.9862 1.46632 3.65473 1.50306 3.3262C1.53981 2.99767 1.68394 2.69045 1.9131 2.4522C2.14227 2.21394 2.44366 2.05798 2.77051 2.00849C3.09736 1.95901 3.43141 2.01878 3.72082 2.17852C4.01024 2.33826 4.23885 2.58905 4.37119 2.89199C4.50353 3.19492 4.5322 3.53305 4.45275 3.85394L6.59925 6.03044L10.9395 1.68869C11.2208 1.40748 11.6023 1.24951 12 1.24951C12.3977 1.24951 12.7792 1.40748 13.0605 1.68869L17.4098 6.03869L19.5653 3.91169C19.4736 3.59403 19.4894 3.25502 19.6102 2.94725C19.7309 2.63949 19.9499 2.38018 20.2331 2.20956C20.5162 2.03895 20.8478 1.96656 21.1763 2.00363C21.5049 2.0407 21.812 2.18516 22.05 2.4146C22.288 2.64403 22.4437 2.94562 22.4928 3.27255C22.5419 3.59948 22.4818 3.93349 22.3217 4.22275C22.1616 4.51201 21.9105 4.74034 21.6074 4.87232C21.3043 5.0043 20.9661 5.03255 20.6453 4.95269L18.4703 7.09919L22.8105 11.4394C23.0917 11.7207 23.2497 12.1022 23.2497 12.4999ZM2.25 12.4999L12 22.2499L21.75 12.4999L12 2.74994L2.25 12.4999ZM8.25 13.6009V8.74994H15.75V13.6002C15.7481 14.31 15.5457 15.0049 15.1661 15.6047C14.7864 16.2044 14.245 16.6847 13.6042 16.9902L12 17.7499L10.3958 16.9909C9.75499 16.6855 9.21359 16.2052 8.83395 15.6054C8.4543 15.0056 8.25188 14.3108 8.25 13.6009ZM13.8992 14.8029C14.1271 14.4433 14.2487 14.0266 14.25 13.6009V10.2499H9.75V13.6009C9.75105 14.0269 9.8725 14.4439 10.1004 14.8038C10.3282 15.1637 10.6532 15.4518 11.0378 15.6349L12 16.0902L12.9623 15.6334C13.3466 15.4504 13.6714 15.1625 13.8992 14.8029Z" fill="#5F5F5F"/>
</svg>
