<svg width="35" height="35" viewBox="0 0 35 35" fill="none" xmlns="http://www.w3.org/2000/svg">
<path fill-rule="evenodd" clip-rule="evenodd" d="M22.3971 14.7495C22.3979 15.0508 22.5768 15.4631 22.7966 15.6707L23.6802 16.5044C23.9001 16.7119 24.2694 16.7267 24.5036 16.5386L25.8058 15.4927C26.0407 15.304 26.2314 14.9071 26.2318 14.6045L26.2425 4.8606C26.2428 4.55873 26.0643 4.48052 25.8439 4.68601L22.7771 7.5448C22.5567 7.75015 22.3787 8.16222 22.3795 8.46218L22.3971 14.7495ZM10.294 18.6079C10.532 18.4221 10.9193 18.4197 11.1599 18.6032L12.1555 19.3618C12.3957 19.545 12.5902 19.9377 12.5896 20.2391L12.5787 26.4891C12.5783 26.7906 12.3983 27.1995 12.1754 27.404L9.1525 30.1767C8.9302 30.3805 8.75 30.3015 8.75 29.9988V20.36C8.75 20.0578 8.94291 19.6623 9.18094 19.4767L10.294 18.6079ZM21.4975 27.6405C21.7998 27.641 22.2255 27.8065 22.4477 28.0097L25.7837 31.0599C26.0061 31.2633 25.9417 31.4283 25.6397 31.4286L9.42074 31.4412C9.11859 31.4413 9.05256 31.2728 9.27199 31.0656L12.5118 28.005C12.7317 27.7974 13.1543 27.6293 13.4574 27.6297L21.4975 27.6405ZM21.4975 7.23076C21.7998 7.23035 22.2255 7.06492 22.4477 6.86175L25.7837 3.81156C26.0061 3.60812 25.9418 3.44324 25.6401 3.44324H9.43305C9.13131 3.44324 9.06473 3.6114 9.28348 3.81785L12.5132 6.86763C12.7322 7.07462 13.1543 7.24197 13.4574 7.24156L21.4975 7.23076ZM22.4719 20.2912C22.474 19.9888 22.6633 19.5863 22.8957 19.3916L23.7639 18.6639C23.9961 18.4694 24.3873 18.4499 24.6371 18.6198L25.7722 19.3918C26.0224 19.5618 26.2269 19.9444 26.2291 20.2473L26.2988 29.8956C26.301 30.1977 26.1183 30.2825 25.8897 30.0834L22.8391 27.4279C22.6111 27.2294 22.4278 26.8247 22.4298 26.5208L22.4719 20.2912ZM12.1939 7.66347C12.4152 7.86855 12.5945 8.27884 12.5945 8.5814V14.6453C12.5945 14.9473 12.4202 15.3635 12.2052 15.575L11.1995 16.5637C10.9845 16.7751 10.6218 16.7915 10.3883 16.5993L9.17191 15.5978C8.93895 15.406 8.75 15.0051 8.75 14.705V5.01851C8.75 4.71705 8.93033 4.6398 9.15059 4.84392L12.1939 7.66347Z" fill="#484848"/>
</svg>
