<svg width="35" height="35" viewBox="0 0 35 35" fill="none" xmlns="http://www.w3.org/2000/svg">
<path d="M28.7793 15.5176C28.7793 15.3672 28.6562 15.2441 28.5059 15.2441H26.4551C26.3047 15.2441 26.1816 15.3672 26.1816 15.5176C26.1816 20.313 22.2954 24.1992 17.5 24.1992C12.7046 24.1992 8.81836 20.313 8.81836 15.5176C8.81836 15.3672 8.69531 15.2441 8.54492 15.2441H6.49414C6.34375 15.2441 6.2207 15.3672 6.2207 15.5176C6.2207 21.2837 10.5479 26.0415 16.1328 26.7148V30.2148H11.1665C10.6982 30.2148 10.3223 30.7036 10.3223 31.3086V32.5391C10.3223 32.6895 10.418 32.8125 10.5342 32.8125H24.4658C24.582 32.8125 24.6777 32.6895 24.6777 32.5391V31.3086C24.6777 30.7036 24.3018 30.2148 23.8335 30.2148H18.7305V26.7319C24.3804 26.1167 28.7793 21.3315 28.7793 15.5176ZM17.5 21.3281C20.7095 21.3281 23.3105 18.7578 23.3105 15.5859V7.92969C23.3105 4.75781 20.7095 2.1875 17.5 2.1875C14.2905 2.1875 11.6895 4.75781 11.6895 7.92969V15.5859C11.6895 18.7578 14.2905 21.3281 17.5 21.3281ZM14.2871 7.92969C14.2871 6.2002 15.7192 4.78516 17.5 4.78516C19.2808 4.78516 20.7129 6.2002 20.7129 7.92969V15.5859C20.7129 17.3154 19.2808 18.7305 17.5 18.7305C15.7192 18.7305 14.2871 17.3154 14.2871 15.5859V7.92969Z" fill="#484848"/>
</svg>
