<svg width="26" height="27" viewBox="0 0 26 27" fill="none" xmlns="http://www.w3.org/2000/svg">
<path d="M13.1808 18.9216V21.4517" stroke="#5F5F5F" stroke-width="2" stroke-linecap="round" stroke-linejoin="round"/>
<path d="M7.15668 25.5482H19.2048V24.3434C19.2048 23.0181 18.1205 21.9337 16.7952 21.9337H9.56631C8.24101 21.9337 7.15668 23.0181 7.15668 24.3434V25.5482Z" stroke="#5F5F5F" stroke-width="2" stroke-miterlimit="10"/>
<path d="M5.95184 25.5481H20.4096" stroke="#5F5F5F" stroke-width="2" stroke-linecap="round" stroke-linejoin="round"/>
<path d="M13 18.3192C8.33736 18.3192 4.56628 14.5482 4.56628 9.88551V6.27105C4.56628 3.60841 6.72291 1.45178 9.38556 1.45178H16.6145C19.2771 1.45178 21.4337 3.60841 21.4337 6.27105V9.88551C21.4337 14.5482 17.6627 18.3192 13 18.3192Z" stroke="#5F5F5F" stroke-width="2" stroke-linecap="round" stroke-linejoin="round"/>
<path d="M5.13253 13.0783C4.22891 12.7891 3.43373 12.259 2.80723 11.6325C1.72289 10.4277 1 8.98187 1 7.29513C1 5.60838 2.3253 4.28308 4.01205 4.28308H4.79518C4.55421 4.8373 4.43373 5.45175 4.43373 6.09031V9.70476C4.43373 10.9096 4.68674 12.0421 5.13253 13.0783Z" stroke="#5F5F5F" stroke-width="2" stroke-linecap="round" stroke-linejoin="round"/>
<path d="M20.8674 13.0783C21.771 12.7891 22.5662 12.259 23.1927 11.6325C24.2771 10.4277 25 8.98187 25 7.29513C25 5.60838 23.6747 4.28308 21.9879 4.28308H21.2048C21.4457 4.8373 21.5662 5.45175 21.5662 6.09031V9.70476C21.5662 10.9096 21.3132 12.0421 20.8674 13.0783Z" stroke="#5F5F5F" stroke-width="2" stroke-linecap="round" stroke-linejoin="round"/>
</svg>
