<svg width="20" height="20" viewBox="0 0 20 20" fill="none" xmlns="http://www.w3.org/2000/svg">
<path d="M1.77873 17.8621C1.57366 17.2309 1.70108 16.7212 1.76679 16.2205C1.96589 14.8098 2.15006 13.3962 2.4089 11.9975C2.67371 10.5649 2.7185 9.11047 2.9186 7.67393C2.96141 7.36333 3.01019 7.05372 3.05897 6.74412C3.16649 6.05821 3.51193 5.59728 4.24165 5.49972C4.32602 5.48682 4.40949 5.46853 4.49152 5.44496C4.51542 5.43899 4.53334 5.41112 4.60501 5.34541C4.60501 5.14631 4.62492 4.89046 4.60501 4.64855C4.44772 2.94621 5.30885 1.63412 6.94349 1.13436C7.4303 0.986032 7.91114 0.811817 8.44374 0.835709C10.3074 0.905395 11.9997 2.32899 12.2088 4.27722C12.2237 4.41858 12.2466 4.55796 12.2725 4.74412C12.6143 4.85791 12.9763 4.89795 13.3347 4.86159C13.6065 4.82874 13.7708 4.9492 13.8524 5.19608C13.9151 5.38523 14.0147 5.57637 14.0177 5.76751C14.0256 6.38075 14.2645 6.93227 14.4159 7.50768C14.7663 8.82774 15.0858 10.1558 15.4373 11.4758C15.7184 12.5216 15.9237 13.5862 16.0515 14.6615C16.1474 15.4188 16.1584 16.1845 16.0844 16.9442C15.8414 17.2022 15.5228 17.3765 15.1744 17.442C13.6443 17.7884 12.1063 18.0811 10.5323 18.1388C9.79167 18.1657 9.052 18.2185 8.31233 18.2444C7.20233 18.2832 6.09232 18.3439 4.98232 18.332C3.90417 18.318 2.83996 18.1219 1.77873 17.8621ZM15.2402 16.6117C15.3453 15.4995 15.2628 14.3775 14.9962 13.2926C14.5682 11.4927 14.1471 9.69086 13.6881 7.89892C13.507 7.18912 13.2312 6.50519 13.0022 5.82028C12.7932 5.764 12.5807 5.72177 12.3661 5.69384C12.0535 5.67692 11.7389 5.68489 11.4263 5.69384C10.5722 5.72769 9.718 5.7695 8.86484 5.80932C8.63687 5.81928 8.4079 5.82326 8.18092 5.84417C7.16051 5.94372 6.14011 6.04327 5.1197 6.13685C4.65821 6.16672 4.20625 6.28182 3.7867 6.47632C3.60569 7.48665 3.48898 8.50745 3.43727 9.53257C3.41338 9.98453 3.41935 10.4415 3.35962 10.8885C3.23817 11.7914 3.07789 12.6884 2.9415 13.5893C2.78421 14.6306 2.63189 15.6729 2.48456 16.7162C2.48389 16.8114 2.49425 16.9062 2.51542 16.999C2.63273 17.067 2.75728 17.1218 2.88675 17.1622C3.33274 17.2518 3.78271 17.3683 4.23169 17.3902C5.33672 17.446 6.44473 17.4768 7.55175 17.4748C8.23269 17.4748 8.91561 17.4022 9.59655 17.3484C10.5921 17.2707 11.5876 17.214 12.5741 17.0866C13.4472 16.9791 14.3103 16.7829 15.2402 16.6117ZM11.504 4.77996C11.4283 4.43153 11.3895 4.18265 11.3178 3.93775C10.7205 1.88996 9.23916 1.13038 7.23617 1.84716C6.94018 1.94673 6.66043 2.08929 6.40591 2.27025C5.99277 2.57687 5.63538 2.95318 5.50994 3.47583C5.35066 4.08011 5.25111 4.68937 5.49999 5.31754C5.62591 5.32692 5.75236 5.32692 5.87828 5.31754C5.95737 5.2945 6.03303 5.26102 6.10327 5.21799C6.11228 5.04588 6.11228 4.87342 6.10327 4.70131C6.05391 4.18675 6.18615 3.67113 6.47707 3.24384C6.76799 2.81654 7.19925 2.50452 7.6961 2.36184C8.65379 2.07015 9.69909 2.44546 10.172 3.31953C10.4388 3.81729 10.6608 4.33098 10.9156 4.86458L11.504 4.77996ZM9.89919 4.96712C9.90226 4.42343 9.73171 3.89296 9.41238 3.45293C9.28352 3.26248 9.10176 3.11387 8.88949 3.02543C8.67723 2.93699 8.44373 2.91256 8.21776 2.95517C7.68316 3.03879 7.31581 3.4141 7.04503 3.87204C6.92083 4.06669 6.84468 4.28807 6.82287 4.51794C6.80106 4.74781 6.83421 4.97956 6.9196 5.19409L9.89919 4.96712Z" fill="#5F5F5F"/>
</svg>
