<svg width="20" height="20" viewBox="0 0 20 20" fill="none" xmlns="http://www.w3.org/2000/svg">
<path fill-rule="evenodd" clip-rule="evenodd" d="M9.99417 4.24742C9.19892 3.54902 8.15273 3.125 7.00663 3.125C4.51768 3.125 2.5 5.12475 2.5 7.59157C2.5 8.7275 2.92199 9.77017 3.62666 10.5583L10 16.875L16.1847 10.7453L16.3675 10.5526C17.0722 9.76433 17.5 8.7275 17.5 7.59157C17.5 5.12475 15.4823 3.125 12.9933 3.125C11.8472 3.125 10.8011 3.54902 10.0058 4.24743L10 4.24165L9.99417 4.24742ZM10 5.91615L10.0458 5.95629L10.7566 5.25173L10.8307 5.18666C11.4057 4.68172 12.161 4.375 12.9933 4.375C14.8025 4.375 16.25 5.82561 16.25 7.59157C16.25 8.40108 15.9488 9.1395 15.4469 9.70675L15.291 9.87108L10 15.1151L4.53562 9.69925C4.04494 9.13817 3.75 8.40075 3.75 7.59157C3.75 5.82561 5.19749 4.375 7.00663 4.375C7.83896 4.375 8.59433 4.68172 9.16933 5.18665L9.24342 5.25169L9.95433 5.95627L10 5.91615Z" fill="#5F5F5F"/>
</svg>
