<svg width="20" height="20" viewBox="0 0 20 20" fill="none" xmlns="http://www.w3.org/2000/svg">
<path d="M16.5625 11.9062V5.9375C16.5625 5.53125 16.3125 5.1875 15.9375 5.0625V3.6875C16.3125 3.5625 16.5625 3.21875 16.5625 2.8125C16.5625 2.28125 16.1562 1.875 15.625 1.875C15.0938 1.875 14.6875 2.28125 14.6875 2.8125C14.6875 3.21875 14.9375 3.5625 15.3125 3.6875V5.0625C14.9375 5.1875 14.6875 5.53125 14.6875 5.9375V11.875H5.3125V5.9375C5.3125 5.53125 5.0625 5.1875 4.6875 5.0625V3.6875C5.0625 3.5625 5.3125 3.21875 5.3125 2.8125C5.3125 2.28125 4.90625 1.875 4.375 1.875C3.84375 1.875 3.4375 2.28125 3.4375 2.8125C3.4375 3.21875 3.6875 3.5625 4.0625 3.6875V5.0625C3.6875 5.1875 3.4375 5.53125 3.4375 5.9375V11.9062C2.03125 12.0625 0.9375 13.25 0.9375 14.6875V16.5625C0.9375 16.75 1.0625 16.875 1.25 16.875H1.875V17.8125C1.875 18 2 18.125 2.1875 18.125H17.8125C18 18.125 18.125 18 18.125 17.8125V16.875H18.75C18.9375 16.875 19.0625 16.75 19.0625 16.5625V14.6875C19.0625 13.25 17.9688 12.0625 16.5625 11.9062ZM15.625 2.5C15.8125 2.5 15.9375 2.625 15.9375 2.8125C15.9375 3 15.8125 3.125 15.625 3.125C15.4375 3.125 15.3125 3 15.3125 2.8125C15.3125 2.625 15.4375 2.5 15.625 2.5ZM15.3125 5.9375C15.3125 5.75 15.4375 5.625 15.625 5.625C15.8125 5.625 15.9375 5.75 15.9375 5.9375V11.875H15.3125V5.9375ZM4.375 2.5C4.5625 2.5 4.6875 2.625 4.6875 2.8125C4.6875 3 4.5625 3.125 4.375 3.125C4.1875 3.125 4.0625 3 4.0625 2.8125C4.0625 2.625 4.1875 2.5 4.375 2.5ZM4.0625 5.9375C4.0625 5.75 4.1875 5.625 4.375 5.625C4.5625 5.625 4.6875 5.75 4.6875 5.9375V11.875H4.0625V5.9375ZM17.5 17.5H2.5V16.875H17.5V17.5ZM18.4375 16.25H17.8125H2.1875H1.5625V14.6875C1.5625 13.4688 2.53125 12.5 3.75 12.5H5H15H16.25C17.4688 12.5 18.4375 13.4688 18.4375 14.6875V16.25Z" fill="#5F5F5F"/>
<path d="M4.375 13.4375C3.84375 13.4375 3.4375 13.8438 3.4375 14.375C3.4375 14.9062 3.84375 15.3125 4.375 15.3125C4.90625 15.3125 5.3125 14.9062 5.3125 14.375C5.3125 13.8438 4.90625 13.4375 4.375 13.4375ZM4.375 14.6875C4.1875 14.6875 4.0625 14.5625 4.0625 14.375C4.0625 14.1875 4.1875 14.0625 4.375 14.0625C4.5625 14.0625 4.6875 14.1875 4.6875 14.375C4.6875 14.5625 4.5625 14.6875 4.375 14.6875Z" fill="#5F5F5F"/>
<path d="M7.1875 13.4375C6.65625 13.4375 6.25 13.8438 6.25 14.375C6.25 14.9062 6.65625 15.3125 7.1875 15.3125C7.71875 15.3125 8.125 14.9062 8.125 14.375C8.125 13.8438 7.71875 13.4375 7.1875 13.4375ZM7.1875 14.6875C7 14.6875 6.875 14.5625 6.875 14.375C6.875 14.1875 7 14.0625 7.1875 14.0625C7.375 14.0625 7.5 14.1875 7.5 14.375C7.5 14.5625 7.375 14.6875 7.1875 14.6875Z" fill="#5F5F5F"/>
<path d="M10 13.4375C9.46875 13.4375 9.0625 13.8438 9.0625 14.375C9.0625 14.9062 9.46875 15.3125 10 15.3125C10.5312 15.3125 10.9375 14.9062 10.9375 14.375C10.9375 13.8438 10.5312 13.4375 10 13.4375ZM10 14.6875C9.8125 14.6875 9.6875 14.5625 9.6875 14.375C9.6875 14.1875 9.8125 14.0625 10 14.0625C10.1875 14.0625 10.3125 14.1875 10.3125 14.375C10.3125 14.5625 10.1875 14.6875 10 14.6875Z" fill="#5F5F5F"/>
<path d="M12.8125 13.4375C12.2812 13.4375 11.875 13.8438 11.875 14.375C11.875 14.9062 12.2812 15.3125 12.8125 15.3125C13.3438 15.3125 13.75 14.9062 13.75 14.375C13.75 13.8438 13.3438 13.4375 12.8125 13.4375ZM12.8125 14.6875C12.625 14.6875 12.5 14.5625 12.5 14.375C12.5 14.1875 12.625 14.0625 12.8125 14.0625C13 14.0625 13.125 14.1875 13.125 14.375C13.125 14.5625 13 14.6875 12.8125 14.6875Z" fill="#5F5F5F"/>
<path d="M15.625 13.4375C15.0938 13.4375 14.6875 13.8438 14.6875 14.375C14.6875 14.9062 15.0938 15.3125 15.625 15.3125C16.1562 15.3125 16.5625 14.9062 16.5625 14.375C16.5625 13.8438 16.1562 13.4375 15.625 13.4375ZM15.625 14.6875C15.4375 14.6875 15.3125 14.5625 15.3125 14.375C15.3125 14.1875 15.4375 14.0625 15.625 14.0625C15.8125 14.0625 15.9375 14.1875 15.9375 14.375C15.9375 14.5625 15.8125 14.6875 15.625 14.6875Z" fill="#5F5F5F"/>
<path d="M9.0625 10C9.0625 10.5312 9.46875 10.9375 10 10.9375C10.5312 10.9375 10.9375 10.5312 10.9375 10C10.9375 9.46875 10.5312 9.0625 10 9.0625C9.46875 9.0625 9.0625 9.46875 9.0625 10ZM10.3125 10C10.3125 10.1875 10.1875 10.3125 10 10.3125C9.8125 10.3125 9.6875 10.1875 9.6875 10C9.6875 9.8125 9.8125 9.6875 10 9.6875C10.1875 9.6875 10.3125 9.8125 10.3125 10Z" fill="#5F5F5F"/>
<path d="M11.2812 8.9375C11.375 8.9375 11.4375 8.90625 11.5 8.84375C11.625 8.71875 11.625 8.53125 11.5 8.40625C11.0938 8.03125 10.5625 7.8125 10.0312 7.8125C9.5 7.8125 8.9375 8.03125 8.5625 8.40625C8.4375 8.53125 8.4375 8.71875 8.5625 8.84375C8.6875 8.96875 8.875 8.96875 9 8.84375C9.28125 8.5625 9.65625 8.4375 10.0625 8.4375C10.4688 8.4375 10.8437 8.59375 11.125 8.84375C11.125 8.90625 11.1875 8.9375 11.2812 8.9375Z" fill="#5F5F5F"/>
<path d="M12.1254 8.03125C12.2192 8.03125 12.2817 8 12.3442 7.9375C12.4692 7.8125 12.4692 7.625 12.3129 7.5C11.6879 6.875 10.8754 6.5625 10.0004 6.5625C9.12542 6.5625 8.31292 6.875 7.65667 7.46875C7.53167 7.59375 7.53167 7.78125 7.62542 7.90625C7.75042 8.03125 7.93792 8.03125 8.06292 7.9375C8.59417 7.46875 9.25042 7.1875 9.96917 7.1875C10.6879 7.1875 11.3442 7.46875 11.8754 7.9375C11.9692 8 12.0317 8.03125 12.1254 8.03125Z" fill="#5F5F5F"/>
<path d="M7.25042 7.03125C8.00042 6.34375 8.96917 5.9375 10.0004 5.9375C11.0317 5.9375 12.0004 6.3125 12.7504 7.03125C12.8129 7.09375 12.8754 7.125 12.9692 7.125C13.0629 7.125 13.1254 7.09375 13.1879 7.03125C13.3129 6.90625 13.3129 6.71875 13.1567 6.59375C12.2817 5.78125 11.1567 5.34375 9.96917 5.34375C8.78167 5.34375 7.65667 5.78125 6.78167 6.59375C6.65667 6.71875 6.65667 6.90625 6.75042 7.03125C6.93792 7.125 7.12542 7.125 7.25042 7.03125Z" fill="#5F5F5F"/>
</svg>
