<svg width="20" height="20" viewBox="0 0 20 20" fill="none" xmlns="http://www.w3.org/2000/svg">
<path fill-rule="evenodd" clip-rule="evenodd" d="M13.3291 2.25375C13.2161 2.14068 13.0243 2.14068 12.9112 2.25375L11.4981 3.66686H14.596C14.6043 3.58575 14.5768 3.50143 14.5125 3.43708L13.3291 2.25375ZM12.2041 1.54664C12.7077 1.04305 13.5326 1.04305 14.0362 1.54664L15.2196 2.72998C15.4784 2.98879 15.6045 3.32899 15.5971 3.66691H16.2497C16.9683 3.66691 17.5381 3.89102 17.9192 4.32779C18.2894 4.75217 18.4163 5.3035 18.4163 5.83358V6.66691C18.4163 7.19699 18.2894 7.74832 17.9192 8.17269C17.713 8.40904 17.4515 8.58311 17.1411 8.6931V15.0002C17.1411 16.2779 16.9346 17.2889 16.2655 17.958C15.5964 18.6271 14.5855 18.8336 13.3078 18.8336H6.64111C5.36341 18.8336 4.35251 18.6271 3.68339 17.958C3.01428 17.2889 2.80778 16.2779 2.80778 15.0002V8.68233C2.50722 8.5718 2.25548 8.40057 2.05757 8.1682C1.69197 7.73895 1.58301 7.18477 1.58301 6.66691V5.83358C1.58301 5.31572 1.69197 4.76154 2.05757 4.33229C2.43624 3.8877 3.01192 3.66691 3.74967 3.66691H4.39337C4.38599 3.32899 4.51213 2.98879 4.77094 2.72998L5.95428 1.54664C6.45787 1.04305 7.28279 1.04305 7.78638 1.54664L9.90663 3.66691H10.0839L12.2041 1.54664ZM6.66138 2.25375C6.77445 2.14068 6.9662 2.14068 7.07927 2.25375L8.49237 3.66686H5.3945C5.38623 3.58575 5.4137 3.50143 5.47805 3.43708L6.66138 2.25375ZM2.81886 4.9807C2.66988 5.15562 2.58301 5.43477 2.58301 5.83358V6.66691C2.58301 7.06572 2.66988 7.34487 2.81886 7.51979C2.95478 7.67936 3.21243 7.83358 3.74967 7.83358H16.2497C16.756 7.83358 17.0196 7.68268 17.1656 7.51529C17.3225 7.3355 17.4163 7.0535 17.4163 6.66691V5.83358C17.4163 5.44699 17.3225 5.16499 17.1656 4.98519C17.0196 4.81781 16.756 4.66691 16.2497 4.66691H3.74967C3.21243 4.66691 2.95478 4.82112 2.81886 4.9807ZM3.80778 8.83358V15.0002C3.80778 16.2225 4.01795 16.8783 4.3905 17.2509C4.76305 17.6234 5.41881 17.8336 6.64111 17.8336H13.3078C14.5301 17.8336 15.1859 17.6234 15.5584 17.2509C15.931 16.8783 16.1411 16.2225 16.1411 15.0002V8.83358H12.9742V12.6086C12.9742 13.6772 11.7853 14.303 10.9052 13.7163L10.903 13.7148L10.1635 13.2163L10.1627 13.2157C10.0586 13.1468 9.91722 13.1423 9.79727 13.2191L9.01615 13.7343L9.01094 13.7377L9.01092 13.7377C8.12648 14.3054 6.94922 13.6868 6.94922 12.6169V8.83358H3.80778ZM7.94922 8.83358V12.6169C7.94922 12.8795 8.23689 13.0441 8.46869 12.8975L9.24889 12.3829L9.25255 12.3804L9.25256 12.3805C9.69866 12.0918 10.2728 12.0873 10.7182 12.3842L10.7204 12.3857L11.4599 12.8842L11.4607 12.8848C11.6805 13.0304 11.9742 12.8729 11.9742 12.6086V8.83358H7.94922Z" fill="#5F5F5F"/>
</svg>
