<svg width="20" height="20" viewBox="0 0 20 20" fill="none" xmlns="http://www.w3.org/2000/svg">
<g clip-path="url(#clip0_1652_6902)">
<path d="M9.99995 17.0201C8.40504 17.0201 6.84386 16.4704 5.60403 15.4724C4.46845 14.5583 3.63945 13.3028 3.2453 11.9098C2.9223 12.0908 2.56135 12.1853 2.18508 12.1853C0.980183 12.1853 0 11.2051 0 10.0002C0 8.79537 0.980183 7.81519 2.18508 7.81519C2.56135 7.81519 2.9223 7.90962 3.2453 8.0906C3.63945 6.69766 4.46845 5.44216 5.60403 4.52808C5.9362 4.26073 6.29129 4.02565 6.66407 3.82459C6.67828 3.8146 6.69396 3.80607 6.71083 3.79938C6.71147 3.79911 6.71202 3.79892 6.71266 3.79865C7.71925 3.26579 8.85089 2.98047 10 2.98047C11.595 2.98047 13.1561 3.53011 14.3961 4.52817C15.5316 5.44225 16.3606 6.69775 16.7547 8.0906C17.0776 7.90962 17.4387 7.81528 17.8149 7.81528C19.0198 7.81528 20 8.79546 20 10.0004C20 11.2053 19.0198 12.1854 17.8149 12.1854C17.4387 12.1854 17.0777 12.091 16.7547 11.91C16.3606 13.303 15.5316 14.5585 14.3961 15.4725C13.156 16.4704 11.5949 17.0201 9.99995 17.0201ZM3.38695 11.3117C3.41262 11.3117 3.43848 11.316 3.46332 11.3248C3.53713 11.3508 3.59251 11.4128 3.61029 11.4891C4.3036 14.4758 6.93114 16.5617 9.99995 16.5617C13.0689 16.5617 15.6965 14.4758 16.3896 11.4891C16.4073 11.4128 16.4628 11.3509 16.5366 11.3248C16.6104 11.2988 16.6924 11.3121 16.7541 11.3603C17.061 11.6 17.4278 11.7268 17.8148 11.7268C18.767 11.7268 19.5415 10.9523 19.5415 10.0002C19.5415 9.04814 18.767 8.27351 17.8148 8.27351C17.4277 8.27351 17.0608 8.40022 16.7541 8.64006C16.6924 8.68828 16.6103 8.70167 16.5366 8.67554C16.4628 8.6495 16.4074 8.58752 16.3896 8.51124C16.0981 7.2551 15.4643 6.15811 14.5994 5.30885C14.3507 5.35753 12.9212 5.59279 11.2925 4.95835C9.87783 4.40715 9.21011 3.76216 8.99153 3.51489C8.70548 3.55853 8.42484 3.6206 8.15153 3.69991C8.3591 3.9811 8.85107 4.53449 9.82997 5.10926C11.2371 5.93541 12.6079 5.86472 12.6213 5.86381C12.7481 5.85574 12.8562 5.95265 12.8637 6.07899C12.8712 6.20533 12.7748 6.31388 12.6485 6.3214C12.5869 6.32488 11.1238 6.40061 9.59792 5.5045C8.411 4.80753 7.88171 4.13228 7.69697 3.85008C7.49463 3.92526 7.29686 4.01016 7.10424 4.10423C7.27908 4.39303 7.72337 4.99841 8.67679 5.66788C10.0065 6.6014 11.3844 6.64586 11.3981 6.64614C11.5246 6.64925 11.6248 6.75423 11.6217 6.88066C11.6189 7.00709 11.5173 7.1084 11.3878 7.10446C11.3261 7.10309 9.86188 7.05999 8.41338 6.04295C7.37855 5.31673 6.89548 4.6535 6.69863 4.32069C5.17532 5.20323 4.03304 6.68969 3.61029 8.51134C3.5926 8.58762 3.53713 8.6495 3.46332 8.67563C3.3897 8.70176 3.30756 8.68847 3.24585 8.64015C2.9389 8.4004 2.57207 8.2736 2.18508 8.2736C1.23295 8.2736 0.458415 9.04814 0.458415 10.0002C0.458415 10.9523 1.23295 11.7268 2.18508 11.7268C2.57217 11.7268 2.93899 11.6001 3.24585 11.3603C3.28674 11.3284 3.33662 11.3117 3.38695 11.3117ZM9.58105 3.45181C9.89773 3.72989 10.4876 4.15282 11.4588 4.53129C12.5824 4.96898 13.6148 4.95752 14.151 4.90755C13.0138 3.98073 11.5642 3.43879 9.99995 3.43879C9.85931 3.43879 9.71977 3.4431 9.58105 3.45181ZM9.99995 15.5806C8.26779 15.5806 6.75034 14.7321 5.92712 13.4698C5.91612 13.4563 5.90649 13.4416 5.8987 13.4258C5.5008 12.7987 5.27305 12.0719 5.27305 11.2981C5.27305 11.1715 5.37565 11.0689 5.50226 11.0689H14.4976C14.6243 11.0689 14.7269 11.1715 14.7269 11.2981C14.7269 12.0722 14.499 12.7991 14.1008 13.4264C14.0931 13.4418 14.0838 13.4562 14.0731 13.4694C13.2501 14.7319 11.7324 15.5806 9.99995 15.5806ZM6.55524 13.5539C7.33262 14.504 8.5873 15.1221 9.99995 15.1221C11.4127 15.1221 12.6675 14.504 13.4448 13.5539H6.55524ZM6.23307 13.0955H13.7669C14.0489 12.6229 14.2235 12.0913 14.2609 11.5272H5.73917C5.77649 12.0913 5.95105 12.6229 6.23307 13.0955ZM17.1149 10.8932C17.0836 10.8932 17.0518 10.8868 17.0214 10.8732C16.9058 10.8215 16.8541 10.6859 16.9057 10.5704L16.9972 10.3658C17.066 10.2121 17.0437 10.0347 16.9391 9.90281L16.8437 9.78252C16.7961 9.72265 16.7816 9.64289 16.8049 9.57009C16.9161 9.22399 17.3469 8.60889 18.179 8.75741C19.008 8.90539 19.2147 9.63775 19.2083 10.0043C19.2061 10.1294 19.1039 10.2295 18.9792 10.2295C18.9777 10.2295 18.9765 10.2295 18.9751 10.2295C18.8488 10.2273 18.7483 10.1235 18.7499 9.99743C18.7503 9.92793 18.735 9.32245 18.0985 9.20877C17.6103 9.12149 17.3772 9.43257 17.2875 9.60447L17.2982 9.61804C17.5095 9.88447 17.5544 10.2428 17.4156 10.5531L17.3241 10.7577C17.2861 10.8426 17.2025 10.8932 17.1149 10.8932ZM2.98886 10.8932C2.90131 10.8932 2.81769 10.8427 2.77955 10.7576L2.68805 10.553C2.54915 10.2427 2.59426 9.88438 2.8055 9.61795L2.81623 9.60447C2.72564 9.43037 2.4924 9.12194 2.0052 9.20877C1.36819 9.32255 1.35333 9.92885 1.35379 9.99761C1.35452 10.1237 1.25331 10.2274 1.12724 10.2288C1.00301 10.232 0.897668 10.1304 0.895376 10.0044C0.888958 9.63784 1.0957 8.90557 1.9247 8.7575C2.75727 8.60852 3.18763 9.22399 3.29875 9.57018C3.32213 9.64298 3.30765 9.72265 3.26006 9.78261L3.16471 9.9029C3.06001 10.0348 3.03773 10.2122 3.10649 10.3659L3.19799 10.5704C3.24961 10.686 3.1979 10.8216 3.08229 10.8733C3.05194 10.8867 3.02013 10.8932 2.98886 10.8932ZM13.4848 9.61712C13.3864 9.61712 13.2955 9.55313 13.2654 9.4542C13.2566 9.42551 13.0464 8.76906 12.3847 8.76906C11.7367 8.76906 11.5833 9.41029 11.577 9.43761C11.549 9.56056 11.4267 9.63867 11.3038 9.61107C11.1806 9.58375 11.1026 9.46273 11.1293 9.33951C11.2062 8.98369 11.5676 8.31064 12.3847 8.31064C13.1908 8.31064 13.6006 8.97259 13.7046 9.32264C13.7407 9.44394 13.6716 9.57156 13.5502 9.60768C13.5285 9.61401 13.5064 9.61712 13.4848 9.61712ZM8.64644 9.61712C8.54128 9.61712 8.44657 9.54424 8.42292 9.43752C8.41668 9.41001 8.2632 8.76906 7.61519 8.76906C6.95305 8.76906 6.74301 9.42624 6.73439 9.45429C6.69735 9.57477 6.57 9.64362 6.4488 9.60676C6.32814 9.57027 6.25947 9.44357 6.29532 9.32264C6.39938 8.97259 6.80911 8.31064 7.61519 8.31064C8.43227 8.31064 8.79368 8.98359 8.8706 9.33951C8.89737 9.46328 8.8188 9.58522 8.69503 9.61199C8.6788 9.61538 8.66248 9.61712 8.64644 9.61712Z" fill="#5F5F5F"/>
</g>
<defs>
<clipPath id="clip0_1652_6902">
<rect width="20" height="20" fill="white"/>
</clipPath>
</defs>
</svg>
