<svg width="20" height="20" viewBox="0 0 20 20" fill="none" xmlns="http://www.w3.org/2000/svg">
<path d="M9.14644 1.70824C9.08098 1.72901 8.93956 1.83236 8.83255 1.93938C8.50835 2.26009 8.48077 2.56368 8.73251 2.96033C8.7704 3.0258 8.736 3.10174 8.35646 3.7847C8.12532 4.20213 7.92874 4.5471 7.92176 4.55391C7.91477 4.56421 7.67333 4.4022 7.39051 4.19864L6.86973 3.82608L6.89051 3.69148C6.92839 3.46383 6.84564 3.25695 6.63178 3.04308C6.26271 2.67402 5.89016 2.67402 5.52458 3.04308C5.26585 3.30181 5.20039 3.51218 5.28995 3.81578C5.34511 3.99857 5.6728 4.33656 5.82801 4.37112C5.89016 4.38142 5.93834 4.4022 5.93834 4.40901C5.93834 4.41931 6.04187 5.04029 6.16599 5.78872L6.39365 7.15115L6.3212 7.33045C6.15569 7.74089 6.10035 8.0375 6.10035 8.54466C6.09686 9.22081 6.2072 9.63474 6.55566 10.2348C6.76952 10.6073 7.33866 11.1765 7.70423 11.3903L7.97326 11.5455L7.66966 11.6869C6.3624 12.2975 5.46558 13.5082 5.28261 14.9087C5.26533 15.0501 5.24805 15.978 5.24805 16.968V18.772H9.39138H13.5307L13.5169 16.7989C13.5066 15.1258 13.4928 14.7879 13.4479 14.5913C13.1236 13.2603 12.306 12.2461 11.0953 11.6805L10.7882 11.5391L10.9607 11.4493C11.2126 11.3217 11.5195 11.0803 11.7748 10.8078C12.0508 10.518 12.1679 10.349 12.3474 9.99019C12.744 9.20021 12.7992 8.36903 12.5096 7.4963L12.3854 7.13073L12.6131 5.7786C12.7372 5.03348 12.8373 4.41948 12.8373 4.40918C12.8373 4.4022 12.8856 4.3816 12.9476 4.3713C13.1028 4.33673 13.4305 3.99874 13.4857 3.81595C13.5373 3.63666 13.5373 3.55373 13.4857 3.37444C13.4305 3.18467 13.1096 2.86396 12.92 2.80879C12.6164 2.71906 12.406 2.7847 12.1438 3.04343C11.93 3.25729 11.8472 3.46435 11.8851 3.69183L11.9059 3.82643L11.3851 4.19532C11.0988 4.39888 10.8608 4.56089 10.8538 4.55408C10.8469 4.54727 10.6503 4.2023 10.4193 3.78488C10.0399 3.10192 10.0054 3.02597 10.0433 2.96051C10.295 2.56386 10.2674 2.26026 9.94323 1.93956C9.68101 1.68065 9.45004 1.61169 9.14644 1.70824ZM9.59494 2.28436C9.70179 2.39137 9.68799 2.60506 9.57417 2.69479C9.37759 2.85 9.11188 2.73268 9.11188 2.48792C9.11188 2.30862 9.2051 2.21539 9.38789 2.21539C9.48094 2.21539 9.55008 2.23949 9.59494 2.28436ZM6.28349 3.38805C6.45248 3.55705 6.30758 3.87095 6.05933 3.87095C5.89382 3.87095 5.8006 3.77091 5.8006 3.59493C5.8006 3.50188 5.82469 3.43275 5.86956 3.38805C5.91442 3.34319 5.98338 3.3191 6.07643 3.3191C6.16966 3.3191 6.23862 3.34336 6.28349 3.38805ZM10.0778 4.29186C10.371 4.82311 10.6297 5.28523 10.6505 5.31281C10.6815 5.35419 10.8092 5.27493 11.4438 4.82643C11.8577 4.52982 12.2199 4.28488 12.244 4.28488C12.3062 4.28488 12.2957 4.38491 12.1026 5.54396L11.9198 6.61327H9.38789H6.85611L6.67315 5.54396C6.48007 4.38491 6.46959 4.28488 6.53523 4.28488C6.55601 4.28488 6.9146 4.52982 7.33202 4.82643C7.97012 5.28523 8.09093 5.35768 8.12532 5.31281C8.14609 5.28523 8.40465 4.82294 8.69794 4.29186L9.23269 3.32259H9.38789H9.54309L10.0778 4.29186ZM12.9062 3.38805C12.9511 3.43292 12.9752 3.50188 12.9752 3.59493C12.9752 3.77091 12.882 3.87095 12.7165 3.87095C12.5475 3.87095 12.4233 3.74682 12.4233 3.57783C12.4233 3.41232 12.5234 3.3191 12.6993 3.3191C12.7924 3.3191 12.8614 3.34336 12.9062 3.38805ZM11.8991 7.41355C12.2924 8.2655 12.2062 9.33831 11.6887 10.1178C11.5611 10.3076 11.1264 10.7697 11.0712 10.7697C11.0574 10.7697 11.0436 10.5661 11.0436 10.3179C11.0436 9.74176 11.0125 9.63143 10.7676 9.38649C10.4986 9.11397 10.4572 9.10716 9.31893 9.12095C8.26341 9.13125 8.23932 9.13824 7.99787 9.37968C7.78052 9.59703 7.74945 9.69358 7.73915 10.2592C7.73216 10.542 7.71505 10.7697 7.70126 10.7697C7.64609 10.7697 7.22518 10.3247 7.09756 10.1351C6.76638 9.63492 6.64906 9.23478 6.64906 8.5794C6.64557 8.04466 6.69044 7.8205 6.87671 7.41355L6.98356 7.1824H9.38789H11.792L11.8991 7.41355ZM10.4226 9.73495C10.4881 9.80042 10.4916 9.84878 10.4916 10.4558V11.1077L10.357 11.1594C9.84302 11.3662 8.99787 11.3662 8.43223 11.1629L8.28384 11.1077V10.456C8.28384 9.84896 8.28733 9.8006 8.3528 9.73513C8.41827 9.66966 8.46662 9.66617 9.38754 9.66617C10.3088 9.66599 10.3572 9.66949 10.4226 9.73495ZM10.0812 11.9254C11.3608 12.1496 12.375 13.012 12.7924 14.2365C12.9579 14.7264 12.9752 14.9403 12.9752 16.6372V18.2205H9.38789H5.8006V16.6372C5.8006 15.4024 5.8109 14.9919 5.85227 14.7676C6.10751 13.3016 7.21139 12.191 8.67385 11.9254C9.01533 11.8633 9.73286 11.8633 10.0812 11.9254Z" fill="#5F5F5F"/>
<path d="M15.7209 1.69828C15.3242 1.79832 14.9447 2.1192 14.7586 2.51916C14.662 2.72272 14.6482 2.7847 14.6482 3.04692C14.6482 3.31595 14.6585 3.36082 14.7793 3.60226L14.907 3.86448V5.10977V6.35506H14.493H14.0791V7.18292V8.01078H14.3551H14.6311V12.9088V17.8069L15.3176 18.3243L16.0075 18.8418L16.6975 18.321L17.3907 17.8036V12.9088V8.01078H17.6667H17.9422V7.18292V6.35506H17.5283H17.1144V5.10977V3.86448L17.2455 3.60226C17.3628 3.36082 17.3731 3.31595 17.3731 3.04692C17.3731 2.7847 17.3593 2.72272 17.2628 2.51916C17.0351 2.03627 16.5833 1.71207 16.0969 1.681C15.9623 1.67419 15.7966 1.681 15.7209 1.69828ZM16.3244 2.26741C17.0073 2.50886 17.0073 3.57817 16.3244 3.81962C15.6276 4.06455 15.0204 3.47814 15.2205 2.7538C15.2689 2.58131 15.5068 2.32957 15.6828 2.26741C15.8658 2.20195 16.1383 2.20195 16.3244 2.26741ZM16.0105 4.40254C16.2071 4.40254 16.3452 4.38177 16.4347 4.34388L16.5623 4.28871V5.32346V6.35488H16.0105H15.4586V5.32346V4.28871L15.5898 4.34388C15.676 4.38194 15.8139 4.40254 16.0105 4.40254ZM17.3904 7.18275V7.45876H16.0107H14.631V7.18275V6.90673H16.0107H17.3904V7.18275ZM15.7347 11.1841V14.3575H16.0107H16.2867V11.1841V8.01078H16.5627H16.8387V12.7709V17.5276L16.4248 17.8414L16.0108 18.1553L15.5969 17.8414L15.183 17.5276V12.7709V8.01078H15.459H15.735V11.1841H15.7347Z" fill="#5F5F5F"/>
<path d="M1.84017 3.72287C0.915759 5.58547 0.833008 5.77874 0.833008 6.15461C0.833008 6.74103 1.20906 7.39641 1.73332 7.72409L1.93688 7.84822V13.3086V18.7725H2.76475H3.59261V13.3086V7.8484L3.79617 7.72427C4.25148 7.44145 4.59296 6.92399 4.6689 6.39623C4.70347 6.16509 4.69998 6.07535 4.65162 5.83391C4.60326 5.57518 4.49991 5.34752 3.68915 3.72287C3.19247 2.72252 2.77505 1.90496 2.76475 1.90496C2.75445 1.90496 2.33702 2.72252 1.84017 3.72287ZM3.45103 4.48858L4.1202 5.83041L4.13399 6.09944C4.16157 6.56505 3.99258 6.9411 3.6373 7.21362C3.20958 7.5448 2.31957 7.5448 1.89184 7.21362C1.53657 6.9411 1.36758 6.56505 1.39516 6.09944L1.40895 5.83041L2.07812 4.48858C2.44369 3.75045 2.75427 3.14675 2.76457 3.14675C2.77487 3.14675 3.08545 3.75045 3.45103 4.48858ZM3.04059 13.1155V18.2206H2.76457H2.48856V13.1155V8.01041H2.76457H3.04059V13.1155Z" fill="#5F5F5F"/>
</svg>
