<svg width="20" height="20" viewBox="0 0 20 20" fill="none" xmlns="http://www.w3.org/2000/svg">
<path d="M9.33874 14.8245C10.1333 14.8245 10.7576 14.2002 10.7576 13.4056C10.7576 12.6111 10.1333 11.9868 9.33874 11.9868C8.5442 11.9868 7.91992 12.6111 7.91992 13.4056C7.91992 14.2002 8.5442 14.8245 9.33874 14.8245ZM9.33874 12.5543C9.82114 12.5543 10.19 12.9232 10.19 13.4056C10.19 13.888 9.82114 14.2569 9.33874 14.2569C8.85634 14.2569 8.48745 13.888 8.48745 13.4056C8.48745 12.9232 8.85634 12.5543 9.33874 12.5543Z" fill="#5F5F5F"/>
<path d="M7.52169 14.5401C7.3798 14.6252 7.35143 14.7955 7.43656 14.9373C7.8622 15.59 8.57161 15.9589 9.33778 15.9589C10.1039 15.9589 10.8134 15.59 11.239 14.9373C11.3241 14.7955 11.2958 14.6252 11.1539 14.5401C11.012 14.4549 10.8417 14.4833 10.7566 14.6252C10.4445 15.1076 9.90531 15.3914 9.33778 15.3914C8.77025 15.3914 8.2311 15.1076 7.91896 14.6252C7.83383 14.4833 7.66357 14.4549 7.52169 14.5401Z" fill="#5F5F5F"/>
<path d="M7.09825 15.42C7.01312 15.3065 6.81448 15.2781 6.70098 15.3633C6.58747 15.4484 6.5591 15.647 6.64422 15.7605C7.29688 16.6118 8.26168 17.0942 9.33999 17.0942C10.4183 17.0942 11.3831 16.6118 12.0357 15.7605C12.1209 15.647 12.1209 15.4484 11.979 15.3633C11.8655 15.2781 11.6669 15.2781 11.5817 15.42C11.0426 16.1294 10.2197 16.5267 9.33999 16.5267C8.46032 16.5267 7.6374 16.1294 7.09825 15.42Z" fill="#5F5F5F"/>
<path d="M12.4046 16.2144C11.6384 17.1225 10.5317 17.6616 9.3399 17.6616C8.14809 17.6616 7.04141 17.1225 6.27525 16.2144C6.16174 16.1009 5.99148 16.0725 5.87798 16.186C5.76447 16.2995 5.7361 16.4698 5.8496 16.5833C6.70089 17.6332 7.97783 18.2291 9.3399 18.2291C10.702 18.2291 11.9789 17.6332 12.8302 16.5833C12.9437 16.4698 12.9153 16.2712 12.8018 16.186C12.6883 16.0725 12.4897 16.1009 12.4046 16.2144Z" fill="#5F5F5F"/>
<path d="M15.5819 1.771H3.09626C2.92601 1.771 2.8125 1.8845 2.8125 2.05476V2.62229C2.8125 3.41683 3.43678 4.04111 4.23132 4.04111V6.31123C4.23132 7.10577 4.40158 7.84355 4.7421 8.49621C4.7421 8.52459 4.77047 8.58134 4.79885 8.60972C5.62177 10.2839 7.35273 11.419 9.33908 11.419C11.3254 11.419 13.0564 10.2839 13.9077 8.60972C13.9361 8.58134 13.9644 8.55297 13.9644 8.49621C14.2766 7.84355 14.4752 7.10577 14.4752 6.31123V4.04111C15.2698 4.04111 15.894 3.41683 15.894 2.62229V2.05476C15.8657 1.8845 15.7522 1.771 15.5819 1.771ZM9.33908 10.8515C7.60812 10.8515 6.10417 9.88666 5.338 8.43946C6.24605 7.10577 7.72162 6.31123 9.33908 6.31123C10.9565 6.31123 12.4321 7.10577 13.3402 8.43946C12.574 9.88666 11.07 10.8515 9.33908 10.8515ZM13.8793 6.31123C13.8793 6.85038 13.7658 7.36116 13.5955 7.84355C12.6024 6.50986 11.0417 5.7437 9.33908 5.7437C7.63649 5.7437 6.07579 6.50986 5.08262 7.84355C4.91236 7.36116 4.79885 6.85038 4.79885 6.31123V4.04111H13.8793V6.31123ZM15.2981 2.62229C15.2981 3.10469 14.9292 3.47358 14.4468 3.47358H14.1631H4.51509H4.23132C3.74892 3.47358 3.38003 3.10469 3.38003 2.62229V2.33852H15.2981V2.62229Z" fill="#5F5F5F"/>
<path d="M9.33874 7.1626C8.5442 7.1626 7.91992 7.78688 7.91992 8.58142C7.91992 9.37596 8.5442 10.0002 9.33874 10.0002C10.1333 10.0002 10.7576 9.37596 10.7576 8.58142C10.7576 7.78688 10.1333 7.1626 9.33874 7.1626ZM9.33874 9.43271C8.85634 9.43271 8.48745 9.06382 8.48745 8.58142C8.48745 8.09902 8.85634 7.73013 9.33874 7.73013C9.82114 7.73013 10.19 8.09902 10.19 8.58142C10.19 9.06382 9.82114 9.43271 9.33874 9.43271Z" fill="#5F5F5F"/>
</svg>
