<svg width="20" height="20" viewBox="0 0 20 20" fill="none" xmlns="http://www.w3.org/2000/svg">
<g clip-path="url(#clip0_1591_6962)">
<path d="M18.9333 10.1665H15.7978L13.9333 7.73318C13.0333 6.53318 11.6 5.83318 10.1 5.83318H4.33332C3.6 5.83318 3 6.43318 3 7.1665V10.1665H1.66668V4.79068C2.24008 4.6417 2.66668 4.11818 2.66668 3.49982C2.66668 2.7665 2.06668 2.1665 1.33336 2.1665C0.6 2.1665 0 2.7665 0 3.49982C0 4.11818 0.426602 4.6417 1 4.79068V10.1687C0.4325 10.2018 0 10.6556 0 11.2331V14.7665C0 15.3665 0.46668 15.8331 1.06668 15.8331H1.69023C1.84941 16.972 2.8134 17.8331 4.00004 17.8331C5.18668 17.8331 6.15066 16.972 6.30984 15.8331H13.6902C13.8494 16.972 14.8134 17.8331 16 17.8331C17.1867 17.8331 18.1507 16.972 18.3098 15.8331H18.9334C19.5334 15.8331 20.0001 15.3665 20.0001 14.7665V13.1665V11.8331V11.2331C20 10.6331 19.5333 10.1665 18.9333 10.1665ZM3.66668 7.1665C3.66668 6.79982 3.96668 6.49982 4.33336 6.49982H10.1334C11.4 6.49982 12.6334 7.09982 13.4334 8.13314L15 10.1665H11.851L11.3333 8.5665C11.1666 8.03318 10.6 7.7665 10.0666 7.93318C9.53332 8.09986 9.26664 8.6665 9.43332 9.19986L9.74899 10.1665H7.18824L6.6 8.56654C6.53332 8.29986 6.33332 8.09986 6.1 7.99986C5.86668 7.89986 5.6 7.86654 5.33332 7.96654C4.8 8.13322 4.53332 8.69986 4.73332 9.23322L5.06387 10.1665H3.66668V7.1665ZM10.0333 9.03314C9.96664 8.83314 10.0666 8.66646 10.2333 8.59982C10.4333 8.53314 10.6 8.63314 10.6666 8.79982L11.1333 10.1665H10.4333L10.0333 9.03314ZM5.33332 9.03314C5.26664 8.86646 5.36664 8.66646 5.53332 8.59982C5.63332 8.5665 5.73332 8.5665 5.8 8.59982C5.86668 8.6665 5.93332 8.73314 5.96668 8.79982L6.46668 10.1665H5.76668L5.33332 9.03314ZM0.66668 3.49982C0.66668 3.13314 0.96668 2.83314 1.33336 2.83314C1.70004 2.83314 2.00004 3.13314 2.00004 3.49982C2.00004 3.8665 1.70004 4.1665 1.33336 4.1665C0.96668 4.1665 0.66668 3.8665 0.66668 3.49982ZM4 17.1665C3.06668 17.1665 2.33332 16.4332 2.33332 15.4998C2.33332 14.5665 3.06664 13.8331 4 13.8331C4.93332 13.8331 5.66668 14.5665 5.66668 15.4998C5.66668 16.4331 4.93332 17.1665 4 17.1665ZM16 17.1665C15.0667 17.1665 14.3333 16.4332 14.3333 15.4998C14.3333 14.5665 15.0666 13.8331 16 13.8331C16.9333 13.8331 17.6667 14.5665 17.6667 15.4998C17.6667 16.4331 16.9333 17.1665 16 17.1665ZM18.9333 15.1665H18.3098C18.1506 14.0276 17.1866 13.1665 16 13.1665C15.9946 13.1665 15.9893 13.1669 15.9839 13.1669C15.9781 13.1669 15.9724 13.1665 15.9666 13.1665C14.8 13.1665 13.8333 14.0332 13.6666 15.1665H6.30981C6.16055 14.0986 5.30352 13.2753 4.21887 13.1768C4.21094 13.1761 4.20289 13.1757 4.19492 13.175C4.16762 13.1728 4.14035 13.1706 4.11277 13.1693C4.07539 13.1675 4.03781 13.1665 4 13.1665C3.96219 13.1665 3.92461 13.1675 3.88723 13.1693C3.85965 13.1706 3.83238 13.1728 3.80508 13.175C3.79711 13.1757 3.78906 13.1761 3.78113 13.1768C2.69648 13.2753 1.83945 14.0986 1.6902 15.1665H1.06668C0.833359 15.1665 0.66668 14.9998 0.66668 14.7665V12.4998H1.66668C1.86668 12.4998 2 12.3665 2 12.1665C2 11.9665 1.86668 11.8332 1.66668 11.8332H0.66668V11.2332C0.66668 10.9999 0.833359 10.8332 1.06668 10.8332H3.33336H5.30004H7.43336H9.96668H12.0667H15.6667H18.9334C19.1667 10.8332 19.3334 10.9999 19.3334 11.2332V11.4999H18.6667C18.1 11.4999 17.6667 11.9332 17.6667 12.4999C17.6667 13.0665 18.1 13.4999 18.6667 13.4999H19.3334V14.7665C19.3333 14.9998 19.1667 15.1665 18.9333 15.1665ZM19.3333 12.1665V12.8332H18.6666C18.4666 12.8332 18.3333 12.6999 18.3333 12.4999C18.3333 12.2999 18.4666 12.1665 18.6666 12.1665L19.3333 12.1665Z" fill="#5F5F5F"/>
<path d="M4.00031 15.1665C3.80031 15.1665 3.66699 15.2998 3.66699 15.4998C3.66699 15.6998 3.80031 15.8331 4.00031 15.8331C4.20031 15.8331 4.33363 15.6998 4.33363 15.4998C4.33363 15.2998 4.20031 15.1665 4.00031 15.1665Z" fill="#5F5F5F"/>
<path d="M16.0003 15.1665C15.8003 15.1665 15.667 15.2998 15.667 15.4998C15.667 15.6998 15.8003 15.8331 16.0003 15.8331C16.2003 15.8331 16.3336 15.6998 16.3336 15.4998C16.3336 15.2998 16.2003 15.1665 16.0003 15.1665Z" fill="#5F5F5F"/>
<path d="M11.667 11.833H10.0003C9.80031 11.833 9.66699 11.9663 9.66699 12.1663V12.4997C9.66699 12.6997 9.80031 12.833 10.0003 12.833C10.2003 12.833 10.3336 12.6997 10.3336 12.4997H11.3336C11.3336 12.6997 11.467 12.833 11.667 12.833C11.867 12.833 12.0003 12.6997 12.0003 12.4997V12.1664C12.0003 11.9664 11.867 11.833 11.667 11.833Z" fill="#5F5F5F"/>
</g>
<defs>
<clipPath id="clip0_1591_6962">
<rect width="20" height="20" fill="white"/>
</clipPath>
</defs>
</svg>
