<svg width="20" height="20" viewBox="0 0 20 20" fill="none" xmlns="http://www.w3.org/2000/svg">
<path d="M9.14111 5.34961C6.57659 5.34961 4.49023 7.436 4.49023 10.0005C4.49023 12.565 6.57662 14.6514 9.14111 14.6514C10.3784 14.6514 11.5436 14.1692 12.4223 13.2937C12.5356 13.1808 12.5359 12.9975 12.4231 12.8843C12.3102 12.771 12.1269 12.7707 12.0137 12.8836C11.2443 13.6502 10.2241 14.0724 9.14115 14.0724C6.89588 14.0724 5.0692 12.2457 5.0692 10.0005C5.0692 7.75522 6.89588 5.92854 9.14115 5.92854C11.3864 5.92854 13.2131 7.75522 13.2131 10.0005C13.2131 10.8167 12.9714 11.6047 12.5142 12.2792C12.4245 12.4116 12.4591 12.5915 12.5914 12.6812C12.7237 12.7709 12.9037 12.7363 12.9934 12.604C13.5159 11.8332 13.7921 10.9329 13.7921 10.0005C13.792 7.43596 11.7056 5.34961 9.14111 5.34961Z" fill="#5F5F5F"/>
<path d="M15.3298 8.87157H14.8401C14.6024 7.66934 13.9928 6.59923 13.1363 5.78676V3.66099V1.58613C13.1363 1.17112 12.7986 0.833496 12.3837 0.833496H5.89982C5.48482 0.833496 5.14719 1.17112 5.14719 1.58613V3.66099V5.78684C4.0305 6.84613 3.33301 8.3432 3.33301 10.0002C3.33301 11.6572 4.03054 13.1542 5.14719 14.2135V16.3393V18.4142C5.14719 18.8292 5.48482 19.1668 5.89982 19.1668H12.3837C12.7987 19.1668 13.1363 18.8292 13.1363 18.4142V16.3393V14.2135C13.9929 13.4011 14.6025 12.331 14.8402 11.1287H15.3298C15.7448 11.1287 16.0825 10.7911 16.0825 10.3761V9.6242C16.0824 9.20923 15.7448 8.87157 15.3298 8.87157ZM5.72612 3.95049H6.34881C6.50869 3.95049 6.63828 3.8209 6.63828 3.66102C6.63828 3.50114 6.50866 3.37156 6.34881 3.37156H5.72612V1.58613C5.72612 1.49038 5.80404 1.41243 5.89982 1.41243H12.3837C12.4794 1.41243 12.5574 1.49035 12.5574 1.58613V3.37152H7.22369C7.06381 3.37152 6.93423 3.50111 6.93423 3.66099C6.93423 3.82087 7.06385 3.95046 7.22369 3.95046H12.5573V5.30419C12.5455 5.29549 12.5334 5.28714 12.5215 5.27855C12.5102 5.27046 12.4989 5.26233 12.4876 5.25431C12.4616 5.23598 12.4356 5.21797 12.4094 5.2001C12.3995 5.19337 12.3897 5.18656 12.3798 5.17987C12.3443 5.15598 12.3086 5.13239 12.2727 5.10929C12.2657 5.10481 12.2587 5.10052 12.2517 5.09611C12.223 5.07785 12.1943 5.05984 12.1653 5.04212C12.1497 5.03255 12.1339 5.02321 12.1182 5.01376C12.0979 5.00165 12.0777 4.98959 12.0573 4.9777C12.0389 4.96699 12.0205 4.95639 12.0019 4.9459C11.9845 4.93602 11.967 4.92624 11.9495 4.91654C11.9289 4.90512 11.9083 4.89373 11.8876 4.88252C11.8748 4.87565 11.8619 4.86899 11.8491 4.86218C11.7631 4.81667 11.6758 4.77331 11.5874 4.73202C11.5817 4.72941 11.5761 4.72669 11.5704 4.72411C11.5395 4.70982 11.5085 4.69586 11.4772 4.68211C11.4733 4.68042 11.4695 4.67871 11.4656 4.67702C10.9925 4.46973 10.4869 4.32371 9.95844 4.24905C9.94982 4.24784 9.94111 4.24658 9.93241 4.2454C9.90208 4.24128 9.87168 4.23731 9.84125 4.23362C9.82821 4.23204 9.81514 4.23061 9.80211 4.22914C9.77253 4.22578 9.74303 4.22241 9.71334 4.21951C9.67603 4.21586 9.63861 4.21249 9.60116 4.20952C9.58197 4.20802 9.5627 4.20687 9.54347 4.20551C9.51723 4.20369 9.49098 4.20197 9.46466 4.2005C9.44651 4.1995 9.42835 4.19864 9.41013 4.19781C9.38076 4.19645 9.35133 4.19534 9.32193 4.19445C9.30675 4.19398 9.2916 4.19344 9.27639 4.19309C9.23159 4.19205 9.18669 4.1914 9.14175 4.1914C9.09681 4.1914 9.05195 4.19205 9.00711 4.19309C8.9919 4.19344 8.97675 4.19398 8.96157 4.19445C8.93213 4.19534 8.90274 4.19645 8.87337 4.19781C8.85515 4.19864 8.83699 4.1995 8.81884 4.2005C8.79263 4.20197 8.76645 4.20369 8.74028 4.20548C8.72091 4.2068 8.70153 4.20798 8.68223 4.20949C8.64865 4.21214 8.6152 4.21518 8.58172 4.21844C8.54792 4.2217 8.51423 4.22535 8.4806 4.22922C8.46793 4.23068 8.45529 4.23204 8.44261 4.23358C8.41189 4.23731 8.38124 4.24132 8.35066 4.24547C8.34228 4.24662 8.33394 4.2478 8.32556 4.24898C7.79682 4.32368 7.29083 4.46977 6.81753 4.6772C6.81391 4.67878 6.81023 4.68039 6.80661 4.682C6.77528 4.69582 6.74405 4.70986 6.71297 4.72422C6.70746 4.72676 6.70198 4.72937 6.69647 4.73195C6.60859 4.77292 6.52187 4.81603 6.4364 4.86118C6.42279 4.86841 6.40908 4.8755 6.39547 4.88281C6.37531 4.89366 6.35533 4.90472 6.33535 4.91582C6.31705 4.92599 6.29875 4.93616 6.28053 4.94651C6.26277 4.95657 6.24508 4.96678 6.22746 4.97705C6.20587 4.98962 6.18438 5.00237 6.16297 5.01522C6.14843 5.02396 6.13379 5.03263 6.11932 5.04147C6.08702 5.06124 6.05487 5.08129 6.02289 5.10173C6.01928 5.10406 6.01559 5.10628 6.01197 5.10861C5.97509 5.13228 5.93849 5.15648 5.90208 5.18101C5.89438 5.18617 5.88682 5.19147 5.8792 5.1967C5.85044 5.21628 5.82183 5.23612 5.7934 5.25621C5.78409 5.2628 5.77486 5.26946 5.76558 5.27608C5.75244 5.2855 5.73919 5.29477 5.72609 5.3043L5.72612 3.95049ZM12.5573 18.4142C12.5573 18.51 12.4794 18.5879 12.3836 18.5879H5.89982C5.80407 18.5879 5.72612 18.51 5.72612 18.4142V16.6288H12.5573V18.4142ZM12.5573 16.0499H5.72612V14.6961C5.73923 14.7057 5.75255 14.715 5.76576 14.7245C5.77496 14.731 5.78409 14.7376 5.79333 14.7442C5.82191 14.7644 5.85062 14.7843 5.87952 14.804C5.88704 14.8091 5.89449 14.8143 5.90201 14.8194C5.93846 14.844 5.97513 14.8682 6.01208 14.8919C6.01544 14.894 6.01885 14.8961 6.02218 14.8982C6.05444 14.9189 6.08688 14.9391 6.11947 14.959C6.13375 14.9678 6.14818 14.9763 6.16258 14.985C6.18421 14.9979 6.2058 15.0108 6.22757 15.0235C6.24508 15.0337 6.26269 15.0438 6.28038 15.0538C6.29872 15.0642 6.31712 15.0745 6.33556 15.0846C6.35544 15.0957 6.37531 15.1067 6.39536 15.1175C6.40918 15.1249 6.42308 15.1321 6.43693 15.1394C6.52208 15.1844 6.60842 15.2273 6.696 15.2682C6.70173 15.2708 6.70742 15.2735 6.71319 15.2762C6.7442 15.2905 6.77528 15.3045 6.80654 15.3183C6.81023 15.3199 6.81395 15.3216 6.81764 15.3232C7.29087 15.5306 7.79675 15.6766 8.32538 15.7513C8.33386 15.7525 8.34239 15.7537 8.35091 15.7549C8.38134 15.759 8.41185 15.763 8.44247 15.7667C8.45529 15.7683 8.46814 15.7697 8.48096 15.7711C8.51451 15.775 8.54806 15.7786 8.58176 15.7819C8.61524 15.7851 8.64872 15.7882 8.68227 15.7908C8.70157 15.7923 8.72098 15.7935 8.74031 15.7949C8.76649 15.7967 8.79266 15.7984 8.81887 15.7998C8.83703 15.8008 8.85522 15.8017 8.87341 15.8025C8.90277 15.8039 8.93221 15.8049 8.9616 15.8059C8.97679 15.8063 8.99193 15.8069 9.00715 15.8072C9.05195 15.8083 9.09685 15.8089 9.14179 15.8089C9.18672 15.8089 9.23159 15.8082 9.27642 15.8072C9.29164 15.8069 9.30679 15.8063 9.32197 15.8059C9.3514 15.8049 9.3808 15.8039 9.41016 15.8025C9.42835 15.8017 9.44651 15.8008 9.4647 15.7998C9.49101 15.7984 9.51726 15.7966 9.54351 15.7948C9.56274 15.7935 9.58204 15.7923 9.60119 15.7908C9.63868 15.7878 9.67607 15.7845 9.71338 15.7808C9.74306 15.7779 9.7726 15.7745 9.80215 15.7712C9.81518 15.7697 9.82825 15.7683 9.84128 15.7667C9.87179 15.7631 9.90216 15.7591 9.93245 15.7549C9.94115 15.7537 9.94981 15.7525 9.95848 15.7513C10.4869 15.6766 10.9926 15.5306 11.4657 15.3233C11.4695 15.3216 11.4733 15.3199 11.4771 15.3183C11.5084 15.3045 11.5394 15.2905 11.5703 15.2762C11.5761 15.2736 11.5818 15.2708 11.5875 15.2682C11.6758 15.227 11.763 15.1837 11.8489 15.1383C11.8618 15.1314 11.8747 15.1248 11.8876 15.1178C11.9083 15.1067 11.9288 15.0954 11.9493 15.084C11.967 15.0742 11.9846 15.0644 12.0021 15.0544C12.0205 15.044 12.0389 15.0334 12.0571 15.0228C12.0776 15.0108 12.0981 14.9987 12.1185 14.9865C12.134 14.9772 12.1497 14.9678 12.1652 14.9584C12.1944 14.9405 12.2235 14.9223 12.2524 14.9039C12.2591 14.8996 12.2659 14.8955 12.2726 14.8911C12.3087 14.868 12.3444 14.8444 12.38 14.8204C12.3897 14.8138 12.3994 14.8071 12.4091 14.8005C12.4354 14.7825 12.4616 14.7644 12.4877 14.746C12.499 14.738 12.5101 14.73 12.5214 14.7219C12.5334 14.7133 12.5455 14.7048 12.5574 14.6961V16.0499H12.5573ZM14.3683 10.1795C14.3679 10.1933 14.3673 10.2069 14.3668 10.2206C14.3617 10.3407 14.3526 10.4607 14.3394 10.5799C14.338 10.5924 14.3366 10.6048 14.3351 10.6173C14.3281 10.6769 14.3204 10.7363 14.3114 10.7954C14.3113 10.7955 14.3113 10.7957 14.3113 10.7958C14.1255 12.0073 13.5226 13.0831 12.6543 13.8716C12.6537 13.8722 12.6529 13.8726 12.6523 13.8732C12.4737 14.0352 12.2854 14.1837 12.0889 14.3182C12.086 14.3202 12.0831 14.3222 12.0803 14.3242C12.051 14.3441 12.0215 14.3637 11.9919 14.383C11.9875 14.3859 11.9831 14.3888 11.9787 14.3917C11.9496 14.4106 11.9202 14.4291 11.8907 14.4474C11.8858 14.4504 11.881 14.4535 11.8762 14.4565C11.8465 14.4748 11.8166 14.4927 11.7866 14.5104C11.782 14.5131 11.7774 14.5158 11.7728 14.5185C11.742 14.5365 11.7111 14.5541 11.6801 14.5714C11.6763 14.5735 11.6725 14.5757 11.6687 14.5778C11.6365 14.5956 11.6042 14.613 11.5717 14.6301C11.5692 14.6315 11.5667 14.6329 11.5642 14.6342C11.5303 14.6519 11.4962 14.6693 11.462 14.6863C11.4611 14.6868 11.4602 14.6872 11.4593 14.6877C10.9951 14.9179 10.4986 15.0779 9.98519 15.1617C9.98491 15.1618 9.98466 15.1618 9.98437 15.1619C9.94785 15.1678 9.91125 15.1733 9.87458 15.1785C9.86903 15.1793 9.86348 15.1801 9.85786 15.1809C9.82503 15.1854 9.79212 15.1896 9.75918 15.1935C9.74922 15.1946 9.73927 15.1958 9.72931 15.1969C9.69977 15.2003 9.67023 15.2034 9.64062 15.2062C9.62644 15.2076 9.61222 15.2088 9.59801 15.21C9.57176 15.2123 9.54555 15.2145 9.51923 15.2164C9.50075 15.2177 9.48213 15.2188 9.46359 15.22C9.44085 15.2214 9.41815 15.2228 9.39541 15.2239C9.37113 15.225 9.34675 15.2259 9.32236 15.2267C9.30475 15.2273 9.2872 15.2281 9.26962 15.2286C9.22711 15.2296 9.18454 15.2302 9.14182 15.2302C9.0991 15.2302 9.05653 15.2296 9.01403 15.2286C8.99637 15.2281 8.97883 15.2273 8.96121 15.2267C8.93686 15.2259 8.91251 15.2251 8.88823 15.2239C8.86546 15.2228 8.84269 15.2214 8.81995 15.22C8.80144 15.2189 8.78289 15.2178 8.76441 15.2164C8.73809 15.2145 8.71181 15.2123 8.68553 15.21C8.67135 15.2088 8.6572 15.2076 8.64306 15.2062C8.61338 15.2034 8.58373 15.2003 8.55419 15.1969C8.5443 15.1958 8.53446 15.1946 8.52457 15.1935C8.49152 15.1896 8.45855 15.1854 8.42564 15.1808C8.42016 15.18 8.41468 15.1793 8.40924 15.1785C8.37246 15.1733 8.33576 15.1678 8.29917 15.1618C8.29906 15.1618 8.29888 15.1618 8.29877 15.1617C7.78544 15.0779 7.28901 14.918 6.82487 14.6879C6.82358 14.6873 6.82233 14.6866 6.82107 14.686C6.78727 14.6692 6.75361 14.652 6.7201 14.6344C6.71705 14.6328 6.71401 14.6311 6.71097 14.6296C6.67903 14.6127 6.64723 14.5956 6.61565 14.5781C6.61117 14.5756 6.60673 14.5731 6.60226 14.5706C6.57193 14.5537 6.54171 14.5365 6.51163 14.519C6.50611 14.5157 6.50063 14.5124 6.49512 14.5092C6.46604 14.4921 6.43715 14.4747 6.40839 14.4571C6.40216 14.4532 6.39604 14.4493 6.38988 14.4455C6.36174 14.428 6.3337 14.4104 6.30584 14.3924C6.29968 14.3884 6.2936 14.3843 6.28747 14.3802C6.25965 14.3621 6.23194 14.3437 6.20444 14.325C6.19906 14.3214 6.19377 14.3176 6.18843 14.3139C6.16018 14.2945 6.13196 14.2749 6.10407 14.255C6.10124 14.2529 6.09845 14.2508 6.09562 14.2488C5.9347 14.1331 5.77958 14.0079 5.63123 13.8733C5.63084 13.8729 5.63041 13.8726 5.63005 13.8723C4.57534 12.9148 3.91201 11.5335 3.91201 10.0002C3.91201 8.46691 4.57531 7.08561 5.62998 6.12815C5.63037 6.12779 5.63084 6.12754 5.6312 6.12719C5.77958 5.99255 5.93473 5.86733 6.09562 5.75164C6.09845 5.74963 6.1012 5.74752 6.10403 5.74551C6.13221 5.72536 6.16061 5.70559 6.18911 5.68604C6.19416 5.68257 6.19917 5.67898 6.20429 5.67551C6.23201 5.65664 6.25994 5.63816 6.28797 5.61987C6.29392 5.61596 6.29979 5.61203 6.30577 5.60816C6.3337 5.59004 6.36185 5.57235 6.3901 5.5548C6.39618 5.55101 6.4022 5.54718 6.40832 5.54342C6.43711 5.52569 6.46612 5.50833 6.49519 5.49121C6.50067 5.48795 6.50611 5.48473 6.51159 5.48151C6.54171 5.46396 6.57196 5.44674 6.60236 5.42977C6.60677 5.42729 6.61117 5.42482 6.61558 5.42239C6.6473 5.40484 6.67917 5.38762 6.71122 5.37075C6.71415 5.36922 6.71709 5.36764 6.72003 5.3661C6.75361 5.34848 6.78738 5.33126 6.82129 5.31439C6.82244 5.31382 6.82362 5.31325 6.82476 5.31264C7.28893 5.08251 7.7854 4.92252 8.29881 4.83866C8.29892 4.83862 8.2991 4.83862 8.2992 4.83859C8.3358 4.83261 8.37246 4.82713 8.4092 4.8219C8.41475 4.82111 8.42027 4.82032 8.42585 4.81957C8.45869 4.81502 8.4916 4.81084 8.52454 4.80697C8.53446 4.80582 8.54438 4.80464 8.55433 4.80353C8.58391 4.8002 8.61348 4.79709 8.64313 4.79426C8.65728 4.7929 8.67142 4.79171 8.6856 4.79046C8.71188 4.78817 8.73817 4.78595 8.76448 4.78405C8.78296 4.78273 8.80151 4.78165 8.82002 4.78054C8.84276 4.77915 8.8655 4.77768 8.88831 4.77657C8.91258 4.77542 8.93693 4.7746 8.96128 4.77377C8.9789 4.77317 8.99644 4.77234 9.0141 4.77191C9.0566 4.77087 9.09917 4.7703 9.14189 4.7703C9.18461 4.7703 9.22719 4.77087 9.26969 4.77191C9.28731 4.77234 9.30485 4.77313 9.32247 4.77374C9.34685 4.7746 9.3712 4.77535 9.39552 4.77653C9.41829 4.77764 9.44099 4.77907 9.46369 4.78047C9.48224 4.78158 9.50083 4.78266 9.51934 4.78402C9.54562 4.78591 9.57187 4.7881 9.59811 4.79042C9.61233 4.79164 9.62655 4.79286 9.64073 4.79422C9.6703 4.79705 9.69981 4.80016 9.72931 4.80349C9.73934 4.8046 9.7494 4.80579 9.75939 4.80693C9.79226 4.81084 9.8251 4.81499 9.85786 4.8195C9.86348 4.82029 9.86914 4.82108 9.87476 4.8219C9.91139 4.82706 9.94799 4.83253 9.98444 4.83851C9.98473 4.83855 9.98498 4.83859 9.98526 4.83862C10.4987 4.92248 10.9953 5.08251 11.4595 5.31278C11.4603 5.31318 11.4611 5.31361 11.4619 5.31396C11.4962 5.33101 11.5304 5.34848 11.5643 5.36628C11.5668 5.36757 11.5692 5.36886 11.5716 5.37015C11.6042 5.3873 11.6366 5.40481 11.6689 5.42264C11.6726 5.42472 11.6763 5.42683 11.6801 5.42894C11.7112 5.44627 11.7422 5.46393 11.7729 5.48186C11.7775 5.48451 11.782 5.48727 11.7866 5.48992C11.8167 5.50765 11.8467 5.52559 11.8764 5.54388C11.8812 5.54682 11.8859 5.54983 11.8907 5.5528C11.9203 5.57113 11.9498 5.58975 11.979 5.6087C11.9833 5.61145 11.9874 5.61425 11.9916 5.61704C12.0214 5.63648 12.0511 5.65614 12.0806 5.67626C12.0831 5.67798 12.0857 5.67984 12.0883 5.6816C12.2851 5.81627 12.4737 5.96494 12.6525 6.12719C12.6536 6.12819 12.6548 6.12905 12.6559 6.13001C13.5235 6.91842 14.1258 7.99375 14.3114 9.20454C14.3114 9.20465 14.3114 9.20476 14.3114 9.2049C14.3204 9.26388 14.3282 9.32328 14.3352 9.38279C14.3367 9.39536 14.3381 9.408 14.3395 9.4206C14.3527 9.5397 14.3618 9.65962 14.3668 9.77972C14.3674 9.7934 14.3679 9.80707 14.3684 9.82079C14.3704 9.88062 14.3718 9.94042 14.3718 10.0002C14.3717 10.0599 14.3703 10.1197 14.3683 10.1795ZM15.3298 10.5498H14.9246C14.926 10.5355 14.927 10.5212 14.9282 10.5069C14.9305 10.4798 14.9329 10.4527 14.9349 10.4255C14.9365 10.404 14.9377 10.3824 14.939 10.3609C14.9406 10.3355 14.9423 10.3101 14.9435 10.2846C14.9448 10.2581 14.9456 10.2316 14.9465 10.2051C14.9472 10.1845 14.9482 10.1639 14.9487 10.1432C14.9498 10.0955 14.9505 10.0478 14.9505 10.0002C14.9505 9.95259 14.9499 9.90493 14.9487 9.85724C14.9482 9.83658 14.9472 9.8161 14.9465 9.79551C14.9456 9.7689 14.9448 9.74233 14.9435 9.71573C14.9423 9.69034 14.9405 9.66506 14.939 9.63975C14.9376 9.61808 14.9365 9.59645 14.9349 9.57479C14.9329 9.54772 14.9305 9.52079 14.9282 9.49387C14.927 9.47944 14.926 9.46497 14.9246 9.45057H15.3298C15.4255 9.45057 15.5035 9.52849 15.5035 9.62428V10.3762C15.5035 10.4719 15.4256 10.5498 15.3298 10.5498Z" fill="#5F5F5F"/>
<path d="M9.14173 6.35205C8.98185 6.35205 8.85226 6.4816 8.85226 6.64152V9.22405C8.53755 9.34186 8.3125 9.64482 8.3125 10.0001C8.3125 10.4574 8.6845 10.8294 9.14176 10.8294C9.49708 10.8294 9.80001 10.6043 9.91785 10.2896H11.6387C11.7986 10.2896 11.9281 10.1601 11.9281 10.0002C11.9281 9.84026 11.7986 9.71071 11.6387 9.71071H9.91785C9.83381 9.48627 9.65567 9.30809 9.43123 9.22409V6.64155C9.43119 6.48167 9.30157 6.35205 9.14173 6.35205ZM9.14173 10.2505C9.00369 10.2505 8.89143 10.1382 8.89143 10.0002C8.89143 9.86214 9.00373 9.74988 9.14173 9.74988C9.27973 9.74988 9.39202 9.86218 9.39202 10.0002C9.39202 10.1382 9.27973 10.2505 9.14173 10.2505Z" fill="#5F5F5F"/>
</svg>
