<svg width="17" height="16" viewBox="0 0 17 16" fill="none" xmlns="http://www.w3.org/2000/svg">
<path d="M7.37502 15.3001L0.775016 8.70006C0.675016 8.60006 0.604015 8.49173 0.562015 8.37506C0.520015 8.25839 0.499349 8.13339 0.500016 8.00006C0.500016 7.86673 0.521016 7.74173 0.563016 7.62506C0.605016 7.50839 0.675682 7.40006 0.775016 7.30006L7.37502 0.70006C7.55835 0.516727 7.78768 0.421061 8.06302 0.413061C8.33835 0.405061 8.57568 0.500727 8.77501 0.70006C8.97501 0.883394 9.07935 1.11273 9.08802 1.38806C9.09668 1.66339 9.00068 1.90073 8.80002 2.10006L3.90002 7.00006H15.075C15.3583 7.00006 15.596 7.09606 15.788 7.28806C15.98 7.48006 16.0757 7.71739 16.075 8.00006C16.075 8.28339 15.9793 8.52106 15.788 8.71306C15.5967 8.90506 15.359 9.00073 15.075 9.00006H3.90002L8.80002 13.9001C8.98335 14.0834 9.07935 14.3167 9.08802 14.6001C9.09668 14.8834 9.00068 15.1167 8.80002 15.3001C8.61668 15.5001 8.38335 15.6001 8.10002 15.6001C7.81668 15.6001 7.57502 15.5001 7.37502 15.3001Z" fill="white"/>
</svg>
