<svg width="83" height="83" viewBox="0 0 83 83" fill="none" xmlns="http://www.w3.org/2000/svg">
<circle cx="41.5" cy="41.5" r="40.5" fill="#FF725E" stroke="white" stroke-width="2"/>
<path d="M33.9 52.25L42 44.15L50.1 52.25L53.25 49.1L45.15 41L53.25 32.9L50.1 29.75L42 37.85L33.9 29.75L30.75 32.9L38.85 41L30.75 49.1L33.9 52.25ZM42 63.5C38.8875 63.5 35.9625 62.909 33.225 61.727C30.4875 60.545 28.1063 58.9423 26.0813 56.9188C24.0563 54.8938 22.4535 52.5125 21.273 49.775C20.0925 47.0375 19.5015 44.1125 19.5 41C19.5 37.8875 20.091 34.9625 21.273 32.225C22.455 29.4875 24.0578 27.1063 26.0813 25.0813C28.1063 23.0563 30.4875 21.4535 33.225 20.273C35.9625 19.0925 38.8875 18.5015 42 18.5C45.1125 18.5 48.0375 19.091 50.775 20.273C53.5125 21.455 55.8938 23.0578 57.9188 25.0813C59.9438 27.1063 61.5472 29.4875 62.7292 32.225C63.9112 34.9625 64.5015 37.8875 64.5 41C64.5 44.1125 63.909 47.0375 62.727 49.775C61.545 52.5125 59.9423 54.8938 57.9188 56.9188C55.8938 58.9438 53.5125 60.5472 50.775 61.7292C48.0375 62.9112 45.1125 63.5015 42 63.5ZM42 59C47.025 59 51.2812 57.2562 54.7687 53.7687C58.2562 50.2812 60 46.025 60 41C60 35.975 58.2562 31.7187 54.7687 28.2312C51.2812 24.7437 47.025 23 42 23C36.975 23 32.7187 24.7437 29.2312 28.2312C25.7437 31.7187 24 35.975 24 41C24 46.025 25.7437 50.2812 29.2312 53.7687C32.7187 57.2562 36.975 59 42 59Z" fill="white"/>
</svg>
