<svg width="405" height="405" viewBox="0 0 405 405" fill="none" xmlns="http://www.w3.org/2000/svg">
<path d="M0 309.945H405V309.743H0V309.945Z" fill="#ECECEC"/>
<mask id="mask0_904_10451" style="mask-type:luminance" maskUnits="userSpaceOnUse" x="0" y="0" width="405" height="405">
<path d="M0 2.86102e-05H405V405H0V2.86102e-05Z" fill="white"/>
</mask>
<g mask="url(#mask0_904_10451)">
<path d="M35.5707 44.7136C33.1326 44.7136 31.1498 46.6965 31.1498 49.1346V268.994C31.1498 271.432 33.1326 273.415 35.5707 273.415H191.981C194.417 273.415 196.401 271.432 196.401 268.994V49.1346C196.401 46.6965 194.417 44.7136 191.981 44.7136H35.5707ZM191.981 273.617H35.5707C33.0217 273.617 30.9473 271.544 30.9473 268.994V49.1346C30.9473 46.5856 33.0217 44.5111 35.5707 44.5111H191.981C194.529 44.5111 196.604 46.5856 196.604 49.1346V268.994C196.604 271.544 194.529 273.617 191.981 273.617Z" fill="#ECECEC"/>
<path d="M210.771 44.7136C208.334 44.7136 206.351 46.6965 206.351 49.1346V268.994C206.351 271.432 208.334 273.415 210.771 273.415H367.181C369.619 273.415 371.602 271.432 371.602 268.994V49.1346C371.602 46.6965 369.619 44.7136 367.181 44.7136H210.771ZM367.181 273.617H210.771C208.223 273.617 206.148 271.544 206.148 268.994V49.1346C206.148 46.5856 208.223 44.5111 210.771 44.5111H367.181C369.73 44.5111 371.805 46.5856 371.805 49.1346V268.994C371.805 271.544 369.73 273.617 367.181 273.617Z" fill="#ECECEC"/>
<path d="M343.361 322.78H364.42V322.982H343.361V322.78Z" fill="#ECECEC"/>
<path d="M251.91 324.978H288.382V325.181H251.91V324.978Z" fill="#ECECEC"/>
<path d="M293.309 315.258H342.55V315.46H293.309V315.258Z" fill="#ECECEC"/>
<path d="M42.4922 316.62H58.0717V316.822H42.4922V316.62Z" fill="#ECECEC"/>
<path d="M65.2832 316.62H110.07V316.822H65.2832V316.62Z" fill="#ECECEC"/>
<path d="M137.43 320.04H197.748V320.242H137.43V320.04Z" fill="#ECECEC"/>
<path d="M306.664 305.593H313.141V185.67H306.664V305.593Z" fill="#F0F0F0"/>
<path d="M275.557 305.593H311.433V309.73H275.557V305.593Z" fill="#F0F0F0"/>
<path d="M306.663 305.593H273.846V185.67H306.663V305.593Z" fill="#F5F5F5"/>
<path d="M303.164 269.529H277.346V248.115H303.164V269.529Z" fill="#F0F0F0"/>
<path d="M303.164 297.557H277.346V276.143H303.164V297.557Z" fill="#F0F0F0"/>
<path d="M286.816 260.291H293.696C294.221 260.291 294.65 259.861 294.65 259.336V258.308C294.65 257.784 294.221 257.354 293.696 257.354H286.816C286.291 257.354 285.861 257.784 285.861 258.308V259.336C285.861 259.861 286.291 260.291 286.816 260.291Z" fill="#F5F5F5"/>
<path d="M286.816 288.317H293.696C294.221 288.317 294.65 287.888 294.65 287.363V286.335C294.65 285.81 294.221 285.381 293.696 285.381H286.816C286.291 285.381 285.861 285.81 285.861 286.335V287.363C285.861 287.888 286.291 288.317 286.816 288.317Z" fill="#F5F5F5"/>
<path d="M303.164 213.696H277.346V192.282H303.164V213.696Z" fill="#F0F0F0"/>
<path d="M303.164 241.502H277.346V220.088H303.164V241.502Z" fill="#F0F0F0"/>
<path d="M286.816 204.458H293.696C294.221 204.458 294.65 204.029 294.65 203.504V202.476C294.65 201.951 294.221 201.522 293.696 201.522H286.816C286.291 201.522 285.861 201.951 285.861 202.476V203.504C285.861 204.029 286.291 204.458 286.816 204.458Z" fill="#F5F5F5"/>
<path d="M286.816 232.264H293.696C294.221 232.264 294.65 231.834 294.65 231.309V230.282C294.65 229.757 294.221 229.327 293.696 229.327H286.816C286.291 229.327 285.861 229.757 285.861 230.282V231.309C285.861 231.834 286.291 232.264 286.816 232.264Z" fill="#F5F5F5"/>
<path d="M342.578 305.593H362.016V185.67H342.578V305.593Z" fill="#F0F0F0"/>
<path d="M311.467 305.593H360.024V309.73H311.467V305.593Z" fill="#F0F0F0"/>
<path d="M342.577 305.593H309.76V185.67H342.577V305.593Z" fill="#F5F5F5"/>
<path d="M339.079 269.529H313.26V248.115H339.079V269.529Z" fill="#F0F0F0"/>
<path d="M339.079 297.557H313.26V276.143H339.079V297.557Z" fill="#F0F0F0"/>
<path d="M322.728 260.291H329.608C330.133 260.291 330.562 259.861 330.562 259.336V258.308C330.562 257.784 330.133 257.354 329.608 257.354H322.728C322.204 257.354 321.773 257.784 321.773 258.308V259.336C321.773 259.861 322.204 260.291 322.728 260.291Z" fill="#F5F5F5"/>
<path d="M322.728 288.317H329.608C330.133 288.317 330.562 287.888 330.562 287.363V286.335C330.562 285.81 330.133 285.381 329.608 285.381H322.728C322.204 285.381 321.773 285.81 321.773 286.335V287.363C321.773 287.888 322.204 288.317 322.728 288.317Z" fill="#F5F5F5"/>
<path d="M339.079 213.696H313.26V192.282H339.079V213.696Z" fill="#F0F0F0"/>
<path d="M339.079 241.502H313.26V220.088H339.079V241.502Z" fill="#F0F0F0"/>
<path d="M322.728 204.458H329.608C330.133 204.458 330.562 204.029 330.562 203.504V202.476C330.562 201.951 330.133 201.522 329.608 201.522H322.728C322.204 201.522 321.773 201.951 321.773 202.476V203.504C321.773 204.029 322.204 204.458 322.728 204.458Z" fill="#F5F5F5"/>
<path d="M322.728 232.264H329.608C330.133 232.264 330.562 231.834 330.562 231.309V230.282C330.562 229.757 330.133 229.327 329.608 229.327H322.728C322.204 229.327 321.773 229.757 321.773 230.282V231.309C321.773 231.834 322.204 232.264 322.728 232.264Z" fill="#F5F5F5"/>
<path d="M237.029 160.639H346.145V64.8473H237.029V160.639Z" fill="#E7E7E7"/>
<path d="M225.337 61.1208H353.21C353.809 61.1208 354.294 61.606 354.294 62.2038C354.294 62.8024 353.809 63.2876 353.21 63.2876H225.337C224.739 63.2876 224.254 62.8024 224.254 62.2038C224.254 61.606 224.739 61.1208 225.337 61.1208Z" fill="#E7E7E7"/>
<path d="M232.398 160.639H343.982V64.8473H232.398V160.639Z" fill="#F0F0F0"/>
<path d="M237.03 160.639H346.146V163.708H233.84L237.03 160.639Z" fill="#E7E7E7"/>
<path d="M224.686 160.639H336.268L333.079 163.708H221.496L224.686 160.639Z" fill="#F0F0F0"/>
<path d="M337.502 71.3299H238.883V154.157H337.502V71.3299Z" fill="#FAFAFA"/>
<path d="M315.114 154.157L277.069 71.3299H259.109L297.154 154.157H315.114Z" fill="white"/>
<path d="M293.297 154.157L255.252 71.3299H248.25L286.295 154.157H293.297Z" fill="white"/>
<path d="M239.707 71.3299H238.883V154.157H239.707V71.3299Z" fill="#E7E7E7"/>
<mask id="mask1_904_10451" style="mask-type:luminance" maskUnits="userSpaceOnUse" x="315" y="59" width="34" height="80">
<path d="M315.113 59.1834H348.581V138.233H315.113V59.1834Z" fill="white"/>
</mask>
<g mask="url(#mask1_904_10451)">
<g opacity="0.399994">
<path d="M337.424 138.233H348.58V59.1834H337.424V138.233Z" fill="#F0F0F0"/>
<path d="M333.078 138.233H341.769V59.1834H333.078V138.233Z" fill="#E7E7E7"/>
<path d="M326.27 138.233H337.425V59.1834H326.27V138.233Z" fill="#F0F0F0"/>
<path d="M321.924 138.233H330.615V59.1834H321.924V138.233Z" fill="#E7E7E7"/>
<path d="M315.113 138.233H326.269V59.1834H315.113V138.233Z" fill="#F0F0F0"/>
</g>
</g>
<mask id="mask2_904_10451" style="mask-type:luminance" maskUnits="userSpaceOnUse" x="230" y="59" width="20" height="80">
<path d="M230.176 59.1834H249.462V138.233H230.176V59.1834Z" fill="white"/>
</mask>
<g mask="url(#mask2_904_10451)">
<g opacity="0.399994">
<path d="M243.033 138.233H249.462V59.1834H243.033V138.233Z" fill="#F0F0F0"/>
<path d="M240.529 138.233H245.538V59.1834H240.529V138.233Z" fill="#E7E7E7"/>
<path d="M236.605 138.233H243.034V59.1834H236.605V138.233Z" fill="#F0F0F0"/>
<path d="M234.102 138.233H239.111V59.1834H234.102V138.233Z" fill="#E7E7E7"/>
<path d="M230.176 138.233H236.605V59.1834H230.176V138.233Z" fill="#F0F0F0"/>
</g>
</g>
<path d="M133.014 122.874H148.458L146.635 83.7181H133.014V122.874Z" fill="#F5F5F5"/>
<path d="M157.177 124.993L160.508 142.386H157.177L136.756 124.993H157.177Z" fill="#F5F5F5"/>
<path d="M160.509 124.993V142.386L140.088 124.993H160.509Z" fill="#E7E7E7"/>
<path d="M77.0967 124.993L80.4282 142.386H77.0967L56.6758 124.993H77.0967Z" fill="#F5F5F5"/>
<path d="M80.4268 124.993V142.386L60.0059 124.993H80.4268Z" fill="#E7E7E7"/>
<path d="M175.5 125.443H153.291V122.934H175.5V125.443Z" fill="#E7E7E7"/>
<path d="M42.8711 125.443H153.29V122.934H42.8711V125.443Z" fill="#F5F5F5"/>
<path d="M110.33 122.874H143.479L147.578 75.4262H114.429L110.33 122.874Z" fill="#E7E7E7"/>
<path d="M108.611 122.874H141.761L145.859 75.4262H112.71L108.611 122.874Z" fill="#F0F0F0"/>
<path d="M138.976 117.621L142.725 80.6778H115.495L111.746 117.621H138.976Z" fill="white"/>
<path d="M95.4902 122.874H106.124L104.869 95.9135H95.4902V122.874Z" fill="#E1E1E1"/>
<path d="M79.8711 122.874H102.696L105.518 90.2038H82.6931L79.8711 122.874Z" fill="#F0F0F0"/>
<path d="M78.6895 122.874H101.514L104.336 90.2038H81.5115L78.6895 122.874Z" fill="#F5F5F5"/>
<path d="M99.5967 119.257L102.178 93.8196H83.4291L80.8477 119.257H99.5967Z" fill="#E1E1E1"/>
<path d="M212.512 191.515C212.72 194.041 210.84 196.258 208.314 196.466C205.788 196.674 203.571 194.794 203.363 192.267C203.156 189.741 205.035 187.524 207.562 187.317C210.088 187.109 212.305 188.989 212.512 191.515Z" fill="#E1E1E1"/>
<path d="M221.04 193.916C221.247 196.442 219.368 198.659 216.841 198.867C214.315 199.075 212.098 197.195 211.891 194.668C211.683 192.142 213.563 189.925 216.089 189.718C218.615 189.509 220.832 191.389 221.04 193.916Z" fill="#E1E1E1"/>
<path d="M227.204 191.174C227.411 193.701 225.532 195.918 223.006 196.125C220.479 196.333 218.262 194.453 218.055 191.927C217.847 189.4 219.727 187.183 222.253 186.976C224.779 186.768 226.996 188.648 227.204 191.174Z" fill="#E1E1E1"/>
<path d="M233.71 192.874C233.917 195.4 232.038 197.617 229.511 197.825C226.985 198.033 224.768 196.153 224.561 193.626C224.352 191.1 226.233 188.883 228.759 188.676C231.285 188.467 233.502 190.347 233.71 192.874Z" fill="#E1E1E1"/>
<path d="M239.552 193.615C239.552 193.615 239.017 206.363 218.535 206.363C198.052 206.363 197.518 193.615 197.518 193.615H239.552Z" fill="#F0F0F0"/>
<path d="M48.502 309.741H55.9426V206.363H48.502V309.741Z" fill="#E7E7E7"/>
<path d="M46.5117 309.741H50.8946V206.363H46.5117V309.741Z" fill="#F0F0F0"/>
<path d="M150.826 214.118H45.1562V206.364H150.826V214.118Z" fill="#F0F0F0"/>
<path d="M250.908 309.741H258.349V206.363H250.908V309.741Z" fill="#E7E7E7"/>
<path d="M249.514 309.741H253.896V206.363H249.514V309.741Z" fill="#F0F0F0"/>
<path d="M259.678 214.118H154.008V206.364H259.678V214.118Z" fill="#E7E7E7"/>
<path d="M151.459 309.741H158.9V206.363H151.459V309.741Z" fill="#E7E7E7"/>
<path d="M149.467 309.741H153.85V206.363H149.467V309.741Z" fill="#F0F0F0"/>
<path d="M175.885 171.979H120.71L110.883 204.561H166.058L175.885 171.979Z" fill="#E7E7E7"/>
<path d="M166.058 204.56L165.835 206.362H110.656L110.879 204.56H166.058Z" fill="#E7E7E7"/>
<path d="M174.188 171.979H119.012L109.186 204.561H164.361L174.188 171.979Z" fill="#F0F0F0"/>
<path d="M163.277 203.072L172.206 173.468H120.095L111.166 203.072H163.277Z" fill="white"/>
<path d="M149.983 204.56L149.761 206.362H89L89.2236 204.56H149.983Z" fill="#F0F0F0"/>
</g>
<mask id="mask3_904_10451" style="mask-type:luminance" maskUnits="userSpaceOnUse" x="0" y="0" width="405" height="405">
<path d="M0 2.86102e-05H405V405H0V2.86102e-05Z" fill="white"/>
</mask>
<g mask="url(#mask3_904_10451)">
<path d="M167.653 225.502C236.525 225.695 306.345 281.125 322.181 189.704C330.24 143.185 366.428 125.028 344.562 95.0624C329.549 74.4908 278.099 58.4966 253.407 58.8433C216.21 59.3657 200.216 84.9042 180.193 111.827C157.534 142.297 128.274 144.948 102.136 168.147C83.0621 185.075 75.1509 228.481 100.111 245.963C130.693 267.383 138.306 225.42 167.653 225.502Z" fill="#00A650"/>
<mask id="mask4_904_10451" style="mask-type:luminance" maskUnits="userSpaceOnUse" x="84" y="58" width="268" height="195">
<path d="M84.4043 58.8384H351.486V252.054H84.4043V58.8384Z" fill="white"/>
</mask>
<g mask="url(#mask4_904_10451)">
<g opacity="0.899994">
<path d="M167.653 225.502C236.525 225.695 306.345 281.125 322.181 189.704C330.24 143.185 366.428 125.028 344.562 95.0624C329.549 74.4908 278.099 58.4966 253.407 58.8433C216.21 59.3657 200.216 84.9042 180.193 111.827C157.534 142.297 128.274 144.948 102.136 168.147C83.0621 185.075 75.1509 228.481 100.111 245.963C130.693 267.383 138.306 225.42 167.653 225.502Z" fill="white"/>
</g>
</g>
</g>
<mask id="mask5_904_10451" style="mask-type:luminance" maskUnits="userSpaceOnUse" x="0" y="0" width="405" height="405">
<path d="M0 2.86102e-05H405V405H0V2.86102e-05Z" fill="white"/>
</mask>
<g mask="url(#mask5_904_10451)">
<path d="M359.551 337.153C359.551 342.218 289.238 346.324 202.501 346.324C115.765 346.324 45.4512 342.218 45.4512 337.153C45.4512 332.088 115.765 327.981 202.501 327.981C289.238 327.981 359.551 332.088 359.551 337.153Z" fill="#F5F5F5"/>
</g>
<mask id="mask6_904_10451" style="mask-type:luminance" maskUnits="userSpaceOnUse" x="0" y="0" width="405" height="405">
<path d="M0 2.86102e-05H405V405H0V2.86102e-05Z" fill="white"/>
</mask>
<g mask="url(#mask6_904_10451)">
<path d="M305.819 88.4121H212.598C206.086 88.4121 200.414 93.7395 199.992 100.25L185.525 323.456C185.103 329.968 190.085 335.294 196.596 335.294H289.818C296.329 335.294 302.001 329.968 302.423 323.456L312.821 163.032C313.7 162.724 314.375 161.908 314.438 160.947L316.298 132.244C316.36 131.283 315.791 130.467 314.952 130.159L316.89 100.25C317.312 93.7395 312.33 88.4121 305.819 88.4121Z" fill="#00A650"/>
<path d="M192.444 146.205H194.268C195.424 146.205 196.431 145.26 196.506 144.104L197.283 132.122C197.358 130.967 196.473 130.021 195.317 130.021H193.493C192.337 130.021 191.33 130.967 191.256 132.122L190.479 144.104C190.404 145.26 191.288 146.205 192.444 146.205Z" fill="#00A650"/>
<path d="M191.057 167.603H192.882C194.037 167.603 195.044 166.657 195.12 165.501L195.896 153.52C195.971 152.365 195.086 151.419 193.93 151.419H192.106C190.951 151.419 189.944 152.365 189.868 153.52L189.092 165.501C189.017 166.657 189.902 167.603 191.057 167.603Z" fill="#00A650"/>
<path d="M284.862 335.295H191.641C185.129 335.295 180.148 329.968 180.57 323.457L195.036 100.251C195.458 93.7392 201.13 88.4118 207.642 88.4118H300.863C307.374 88.4118 312.356 93.7392 311.934 100.251L297.468 323.457C297.046 329.968 291.373 335.295 284.862 335.295Z" fill="#1A2E35"/>
<mask id="mask7_904_10451" style="mask-type:luminance" maskUnits="userSpaceOnUse" x="231" y="312" width="17" height="17">
<path d="M231.244 312.277H247.209V328.208H231.244V312.277Z" fill="white"/>
</mask>
<g mask="url(#mask7_904_10451)">
<g opacity="0.199997">
<path d="M247.192 320.242C246.907 324.642 243.11 328.208 238.711 328.208C234.312 328.208 230.976 324.642 231.261 320.242C231.546 315.843 235.344 312.277 239.743 312.277C244.142 312.277 247.477 315.843 247.192 320.242Z" fill="white"/>
</g>
</g>
<path d="M293.29 306.315H187.312C185.787 306.315 184.581 305.027 184.679 303.507L197.085 112.087C197.175 110.7 198.327 109.62 199.718 109.62H305.696C307.22 109.62 308.426 110.907 308.328 112.429L295.922 303.848C295.832 305.235 294.68 306.315 293.29 306.315Z" fill="white"/>
<mask id="mask8_904_10451" style="mask-type:luminance" maskUnits="userSpaceOnUse" x="215" y="181" width="59" height="59">
<path d="M215.268 181.827H273.226V239.663H215.268V181.827Z" fill="white"/>
</mask>
<g mask="url(#mask8_904_10451)">
<g opacity="0.199997">
<path d="M273.164 210.746C272.129 226.717 258.344 239.664 242.372 239.664C226.402 239.664 214.294 226.717 215.329 210.746C216.364 194.775 230.15 181.828 246.121 181.828C262.091 181.828 274.199 194.775 273.164 210.746Z" fill="#00A650"/>
</g>
</g>
<mask id="mask9_904_10451" style="mask-type:luminance" maskUnits="userSpaceOnUse" x="199" y="166" width="90" height="90">
<path d="M199.535 166.13H288.955V255.361H199.535V166.13Z" fill="white"/>
</mask>
<g mask="url(#mask9_904_10451)">
<g opacity="0.199997">
<path d="M247.085 166.94C222.93 166.94 202.006 186.591 200.44 210.746C198.874 234.9 217.252 254.55 241.407 254.55C265.561 254.55 286.485 234.9 288.05 210.746C289.616 186.591 271.239 166.94 247.085 166.94ZM241.354 255.36C216.753 255.36 198.035 235.346 199.63 210.746C201.224 186.144 222.536 166.13 247.137 166.13C271.738 166.13 290.454 186.144 288.86 210.746C287.265 235.346 265.954 255.36 241.354 255.36Z" fill="#00A650"/>
</g>
</g>
<path d="M237.339 224.764L234.926 220.081C229.663 209.865 217.533 200.734 213.303 198.078L217.303 192.091C222.312 195.237 232.334 203.022 238.623 212.267C250.239 198.508 266.667 184.315 288.664 169.016L292.415 174.668C268.91 191.016 252.019 205.962 240.776 220.362L237.339 224.764Z" fill="#00A650"/>
<mask id="mask10_904_10451" style="mask-type:luminance" maskUnits="userSpaceOnUse" x="230" y="95" width="8" height="8">
<path d="M230.771 95.6774H237.239V102.13H230.771V95.6774Z" fill="white"/>
</mask>
<g mask="url(#mask10_904_10451)">
<g opacity="0.199997">
<path d="M230.778 98.9037C230.894 97.1217 232.432 95.6774 234.214 95.6774C235.996 95.6774 237.347 97.1217 237.232 98.9037C237.116 100.686 235.578 102.13 233.796 102.13C232.014 102.13 230.663 100.686 230.778 98.9037Z" fill="white"/>
</g>
</g>
<mask id="mask11_904_10451" style="mask-type:luminance" maskUnits="userSpaceOnUse" x="241" y="95" width="35" height="8">
<path d="M241.92 95.6774H275.191V102.13H241.92V95.6774Z" fill="white"/>
</mask>
<g mask="url(#mask11_904_10451)">
<g opacity="0.199997">
<path d="M245.363 95.6771H272.168C273.943 95.6771 275.3 97.1286 275.185 98.9033C275.07 100.678 273.524 102.13 271.749 102.13H244.944C243.169 102.13 241.812 100.678 241.927 98.9033C242.042 97.1286 243.588 95.6771 245.363 95.6771Z" fill="white"/>
</g>
</g>
</g>
<mask id="mask12_904_10451" style="mask-type:luminance" maskUnits="userSpaceOnUse" x="0" y="0" width="405" height="405">
<path d="M0 2.86102e-05H405V405H0V2.86102e-05Z" fill="white"/>
</mask>
<g mask="url(#mask12_904_10451)">
<path d="M145.586 155.556C144.218 156.953 142.751 158.498 141.404 160.041C140.035 161.588 138.694 163.16 137.424 164.779C136.15 166.397 134.95 168.054 133.797 169.73L132.957 171L132.17 172.291C131.899 172.719 131.655 173.156 131.421 173.596L130.772 174.788C130.555 175.221 130.397 176.049 130.327 176.917C130.255 177.797 130.269 178.76 130.329 179.737C130.454 181.699 130.742 183.736 131.108 185.772C131.459 187.814 131.899 189.863 132.392 191.906C132.859 193.951 133.4 196.013 133.935 198.024L130.934 199.147C129.102 195.162 127.615 191.11 126.382 186.865C125.789 184.739 125.268 182.572 124.953 180.283C124.801 179.135 124.691 177.96 124.7 176.705C124.719 175.446 124.815 174.116 125.404 172.562C125.587 172.11 125.69 171.927 125.816 171.657L126.186 170.888C126.429 170.372 126.682 169.863 126.956 169.372L127.762 167.883L128.617 166.434C129.776 164.518 131.009 162.658 132.353 160.898C133.684 159.128 135.056 157.396 136.506 155.734C137.984 154.072 139.427 152.485 141.108 150.888L145.586 155.556Z" fill="#CE5B51"/>
<path d="M145.935 145.791C141.546 145.99 137.379 153.274 137.379 153.274L143.175 165.112C143.175 165.112 151.031 158.565 151.132 152.134C151.197 147.952 150.251 145.595 145.935 145.791Z" fill="#00A650"/>
<mask id="mask13_904_10451" style="mask-type:luminance" maskUnits="userSpaceOnUse" x="137" y="145" width="15" height="21">
<path d="M137.379 145.78H151.134V165.113H137.379V145.78Z" fill="white"/>
</mask>
<g mask="url(#mask13_904_10451)">
<g opacity="0.699997">
<path d="M145.935 145.791C141.546 145.99 137.379 153.274 137.379 153.274L143.175 165.112C143.175 165.112 151.031 158.565 151.132 152.134C151.197 147.952 150.251 145.595 145.935 145.791Z" fill="white"/>
</g>
</g>
<mask id="mask14_904_10451" style="mask-type:luminance" maskUnits="userSpaceOnUse" x="144" y="153" width="6" height="11">
<path d="M144.893 153.894H149.728V163.499H144.893V153.894Z" fill="white"/>
</mask>
<g mask="url(#mask14_904_10451)">
<g opacity="0.199997">
<path d="M146.982 154.305C145.703 156.241 145.087 161.263 144.893 163.499C146.351 162.041 148.392 159.716 149.728 157.091C148.886 154.929 147.825 153.033 146.982 154.305Z" fill="black"/>
</g>
</g>
<path d="M133.105 196.755L138.443 198.341L134.891 201.938C134.891 201.938 131.045 200.753 130.508 198.138L133.105 196.755Z" fill="#CE5B51"/>
<path d="M141.674 202.451L140.775 205.89L134.891 201.938L138.442 198.341L141.674 202.451Z" fill="#CE5B51"/>
<path d="M176.798 131.743C176.631 132.222 176.751 132.707 177.064 132.826C177.379 132.945 177.768 132.652 177.934 132.173C178.1 131.693 177.981 131.208 177.668 131.089C177.354 130.971 176.965 131.263 176.798 131.743Z" fill="#1A2E35"/>
<path d="M177.52 131.063L178.788 131.168C178.788 131.168 177.884 131.843 177.52 131.063Z" fill="#1A2E35"/>
<path d="M177.04 132.362C177.04 132.362 177.138 134.735 177.688 136.071C176.849 136.422 175.865 135.744 175.865 135.744L177.04 132.362Z" fill="#BB221F"/>
<path d="M178.369 129.879C178.257 129.86 178.159 129.776 178.129 129.658C177.797 128.356 176.782 127.957 176.74 127.941C176.585 127.883 176.506 127.71 176.564 127.556C176.622 127.401 176.793 127.322 176.948 127.379C177.002 127.399 178.298 127.892 178.71 129.51C178.752 129.67 178.654 129.833 178.494 129.874C178.452 129.885 178.41 129.887 178.369 129.879Z" fill="#1A2E35"/>
<path d="M160.158 133.781C160.277 137.608 159.886 144.501 156.887 146.458C156.887 146.458 157.283 150.393 164.17 151.727C171.744 153.193 168.407 148.69 168.407 148.69C164.435 146.908 165.046 143.879 166.239 141.155L160.158 133.781Z" fill="#CE5B51"/>
<path d="M182.668 159.996C183.355 161.857 184.129 163.864 184.952 165.768C185.77 167.691 186.619 169.601 187.54 171.468C188.46 173.338 189.446 175.156 190.464 176.946C190.986 177.832 191.515 178.711 192.083 179.555C192.355 179.988 192.641 180.408 192.94 180.812L193.381 181.427L193.602 181.736L193.712 181.891L193.785 181.977C194.139 182.436 194.831 183.008 195.58 183.534C196.34 184.065 197.19 184.57 198.075 185.046C199.854 185.997 201.753 186.869 203.688 187.683C205.623 188.51 207.601 189.281 209.601 190.006C211.59 190.758 213.626 191.459 215.621 192.149L214.871 195.265C210.513 194.549 206.28 193.533 202.029 192.245C199.913 191.578 197.801 190.842 195.698 189.904C194.646 189.429 193.595 188.908 192.536 188.278C191.477 187.637 190.414 186.912 189.351 185.739L189.156 185.522L189.022 185.353L188.754 185.017L188.217 184.343C187.852 183.897 187.508 183.441 187.181 182.978C186.497 182.062 185.864 181.123 185.242 180.179C184.013 178.286 182.862 176.351 181.847 174.363C180.819 172.38 179.84 170.377 178.957 168.336C178.085 166.272 177.264 164.266 176.533 162.051L182.668 159.996Z" fill="#CE5B51"/>
<path d="M214.55 192.102L219.331 190.249L219.095 195.77C219.095 195.77 215.225 196.801 213.43 194.845L214.55 192.102Z" fill="#CE5B51"/>
<path d="M222.932 192.147L224.573 195.672L219.094 195.77L219.329 190.25L222.932 192.147Z" fill="#CE5B51"/>
<path d="M143.682 330.394L150.006 330.859L151.885 316.337L145.56 315.87L143.682 330.394Z" fill="#CE5B51"/>
<path d="M93.5723 297.54L97.7025 302.445L109.969 294.563L105.839 289.658L93.5723 297.54Z" fill="#CE5B51"/>
<path d="M99.6487 301.812L96.3188 295.411C96.1973 295.178 95.9421 295.071 95.704 295.153L90.409 296.983C89.8598 297.173 89.612 297.876 89.9011 298.409C91.0991 300.621 91.786 301.629 93.2505 304.444C94.1512 306.176 95.2933 308.796 96.5375 311.188C97.7541 313.527 100.143 312.512 99.8334 311.408C98.4418 306.458 99.3603 305.083 99.8042 302.941C99.8844 302.554 99.8261 302.153 99.6487 301.812Z" fill="#1A2E35"/>
<path d="M150.399 329.959H143.29C143.031 329.959 142.817 330.139 142.774 330.391L141.819 336.016C141.721 336.6 142.208 337.151 142.805 337.141C145.285 337.099 146.483 336.953 149.609 336.953C151.532 336.953 155.505 337.153 158.161 337.153C160.759 337.153 161.026 334.527 159.926 334.289C154.995 333.222 153.081 331.752 151.446 330.348C151.151 330.095 150.777 329.959 150.399 329.959Z" fill="#1A2E35"/>
<mask id="mask15_904_10451" style="mask-type:luminance" maskUnits="userSpaceOnUse" x="144" y="315" width="8" height="10">
<path d="M144.533 315.874H151.881V324.412H144.533V315.874Z" fill="white"/>
</mask>
<g mask="url(#mask15_904_10451)">
<g opacity="0.199997">
<path d="M151.882 316.34L150.839 324.412L144.533 323.78L145.555 315.875L151.882 316.34Z" fill="black"/>
</g>
</g>
<mask id="mask16_904_10451" style="mask-type:luminance" maskUnits="userSpaceOnUse" x="100" y="289" width="10" height="9">
<path d="M100.6 289.66H109.966V297.825H100.6V289.66Z" fill="white"/>
</mask>
<g mask="url(#mask16_904_10451)">
<g opacity="0.199997">
<path d="M105.833 289.659L109.966 294.566L104.889 297.826L100.6 293.019L105.833 289.659Z" fill="black"/>
</g>
</g>
<path d="M144.154 184.318C149.059 185.266 159.462 187.283 169.523 189.235C181.511 153.943 178.642 152.801 178.642 152.801C178.642 152.801 176.097 151.384 172.885 150.128C172.762 150.079 172.648 150.039 172.541 149.998C170.919 149.407 170.577 149.318 168.403 148.686C164.668 147.803 161.188 147.082 156.884 146.459C156.608 146.418 156.331 146.378 156.063 146.345C155.282 146.248 154.51 146.167 153.763 146.094C153.259 146.038 152.756 146.005 152.277 145.973C151.709 145.94 151.158 145.908 150.638 145.884C147.864 145.746 145.88 145.786 145.88 145.786C147.334 167.81 146.275 174.136 144.154 184.318Z" fill="#00A650"/>
<mask id="mask17_904_10451" style="mask-type:luminance" maskUnits="userSpaceOnUse" x="144" y="145" width="35" height="45">
<path d="M144.154 145.781H178.943V189.234H144.154V145.781Z" fill="white"/>
</mask>
<g mask="url(#mask17_904_10451)">
<g opacity="0.699997">
<path d="M144.154 184.318C149.059 185.266 159.462 187.283 169.523 189.235C181.511 153.943 178.642 152.801 178.642 152.801C178.642 152.801 176.097 151.384 172.885 150.128C172.762 150.079 172.648 150.039 172.541 149.998C170.919 149.407 170.577 149.318 168.403 148.686C164.668 147.803 161.188 147.082 156.884 146.459C156.608 146.418 156.331 146.378 156.063 146.345C155.282 146.248 154.51 146.167 153.763 146.094C153.259 146.038 152.756 146.005 152.277 145.973C151.709 145.94 151.158 145.908 150.638 145.884C147.864 145.746 145.88 145.786 145.88 145.786C147.334 167.81 146.275 174.136 144.154 184.318Z" fill="white"/>
</g>
</g>
<mask id="mask18_904_10451" style="mask-type:luminance" maskUnits="userSpaceOnUse" x="172" y="160" width="6" height="13">
<path d="M172.732 160.647H177.244V172.149H172.732V160.647Z" fill="white"/>
</mask>
<g mask="url(#mask18_904_10451)">
<g opacity="0.199997">
<path d="M175.025 161.02L172.733 160.647C172.708 163.669 173.883 168.853 175.001 172.149C175.948 168.926 176.686 166.245 177.244 164.001L175.025 161.02Z" fill="black"/>
</g>
</g>
<path d="M177.79 152.349C181.537 153.551 184.266 160.971 185.29 164.173L178.027 172.729C178.027 172.729 170.533 162 171.685 158.671C172.885 155.206 175.97 151.765 177.79 152.349Z" fill="#00A650"/>
<mask id="mask19_904_10451" style="mask-type:luminance" maskUnits="userSpaceOnUse" x="171" y="152" width="15" height="21">
<path d="M171.564 152.284H185.291V172.729H171.564V152.284Z" fill="white"/>
</mask>
<g mask="url(#mask19_904_10451)">
<g opacity="0.699997">
<path d="M177.79 152.349C181.537 153.551 184.266 160.971 185.29 164.173L178.027 172.729C178.027 172.729 170.533 162 171.685 158.671C172.885 155.206 175.97 151.765 177.79 152.349Z" fill="white"/>
</g>
</g>
<path d="M180.214 124.957C179.464 127.169 176.185 128.057 172.89 126.94C169.595 125.822 167.532 123.124 168.283 120.911C169.032 118.699 172.312 117.812 175.606 118.929C178.901 120.046 180.964 122.745 180.214 124.957Z" fill="#1A2E35"/>
<path d="M161.195 124.348C159.512 130.376 158.67 132.888 160.598 137.038C163.498 143.281 171.261 144.259 174.709 138.91C177.813 134.096 180.044 125.048 175.087 120.519C170.204 116.058 162.878 118.32 161.195 124.348Z" fill="#CE5B51"/>
<path d="M170.601 117.315C168.141 118.708 163.013 109.98 156.605 117.315C152.019 122.566 154.941 130.282 154.941 130.282C154.941 130.282 151.294 123.859 148.371 126.99C144.568 131.063 148.505 145.53 161.06 144.54C173.615 143.55 172.411 133.352 172.411 133.352C172.411 133.352 178.292 127.372 177.997 122.04C177.772 117.982 174.651 115.02 170.601 117.315Z" fill="#1A2E35"/>
<path d="M172.128 129.525C171.776 130.607 171.886 131.909 172.233 132.938C172.757 134.485 173.946 134.495 174.577 133.424C175.145 132.461 175.558 130.497 174.659 129.251C173.773 128.025 172.531 128.288 172.128 129.525Z" fill="#CE5B51"/>
<path d="M162.825 187.936C162.825 187.936 160.119 197.316 156.645 209.693C154.336 217.939 151.679 227.513 149.257 236.528C147.872 241.688 146.568 246.661 145.442 251.1C139.076 276.251 107.324 297.87 107.324 297.87L101.176 291.106C101.176 291.106 122.511 273.14 128.683 249.675C141.214 202.039 134.167 194.003 144.154 184.324L162.825 187.936Z" fill="#1A2E35"/>
<mask id="mask20_904_10451" style="mask-type:luminance" maskUnits="userSpaceOnUse" x="148" y="196" width="13" height="41">
<path d="M148.674 196.036H160.072V236.528H148.674V196.036Z" fill="white"/>
</mask>
<g mask="url(#mask20_904_10451)">
<g opacity="0.199997">
<path d="M160.072 196.328C159.132 199.964 157.95 204.557 156.646 209.693C154.337 217.938 151.68 227.513 149.259 236.528C148.222 225.026 147.606 203.877 156.103 197.3C157.772 196.004 159.092 195.752 160.072 196.328Z" fill="black"/>
</g>
</g>
<path d="M107.837 298.836L100.156 290.383L102.477 288.055L111.897 296.932L107.837 298.836Z" fill="#00A650"/>
<mask id="mask21_904_10451" style="mask-type:luminance" maskUnits="userSpaceOnUse" x="100" y="288" width="12" height="11">
<path d="M100.156 288.055H111.898V298.836H100.156V288.055Z" fill="white"/>
</mask>
<g mask="url(#mask21_904_10451)">
<g opacity="0.699997">
<path d="M107.837 298.836L100.156 290.383L102.477 288.055L111.897 296.932L107.837 298.836Z" fill="white"/>
</g>
</g>
<path d="M99.502 302.945C99.8301 304.046 100.255 304.776 100.665 304.923C100.833 304.985 101.004 304.949 101.188 304.816C101.287 304.745 101.297 304.675 101.294 304.622C101.273 304.193 100.286 303.437 99.502 302.945ZM100.788 305.251C100.713 305.248 100.638 305.232 100.563 305.205C99.8049 304.931 99.3279 303.493 99.1124 302.66C99.097 302.601 99.1181 302.539 99.1659 302.503C99.2136 302.466 99.2793 302.461 99.3319 302.492C99.5587 302.623 101.552 303.795 101.593 304.607C101.602 304.788 101.523 304.944 101.363 305.059C101.172 305.197 100.979 305.261 100.788 305.251Z" fill="#00A650"/>
<path d="M169.144 189.233C169.144 189.233 170.723 239.308 167.185 258.169C163.505 277.788 152.298 322.416 152.298 322.416L143.176 321.238C143.176 321.238 148.945 276.156 151.393 256.663C154.063 235.412 150.565 185.635 150.565 185.635L169.144 189.233Z" fill="#1A2E35"/>
<path d="M154.238 322.937L141.236 321.258L141.398 318.169L155.542 318.785L154.238 322.937Z" fill="#00A650"/>
<mask id="mask22_904_10451" style="mask-type:luminance" maskUnits="userSpaceOnUse" x="141" y="318" width="15" height="5">
<path d="M141.236 318.169H155.542V322.937H141.236V318.169Z" fill="white"/>
</mask>
<g mask="url(#mask22_904_10451)">
<g opacity="0.699997">
<path d="M154.238 322.937L141.236 321.258L141.398 318.169L155.542 318.785L154.238 322.937Z" fill="white"/>
</g>
</g>
<path d="M99.5847 302.631C100.282 302.954 101.516 303.136 101.857 302.864C101.913 302.819 101.969 302.744 101.899 302.558C101.842 302.408 101.741 302.306 101.588 302.249C101.078 302.054 100.126 302.389 99.5847 302.631ZM101.097 303.289C100.391 303.253 99.545 302.994 99.174 302.747C99.1295 302.717 99.1052 302.667 99.1076 302.614C99.1108 302.561 99.1408 302.514 99.1878 302.489C99.2542 302.454 100.835 301.639 101.695 301.969C101.929 302.058 102.092 302.221 102.179 302.451C102.316 302.812 102.153 303.011 102.044 303.099C101.843 303.259 101.491 303.308 101.097 303.289Z" fill="#00A650"/>
<path d="M151.266 330.626C152.659 330.858 153.701 330.797 154.094 330.453C154.234 330.33 154.295 330.172 154.282 329.969C154.276 329.891 154.25 329.844 154.191 329.811C153.777 329.577 152.318 330.127 151.266 330.626ZM152.751 331.065C152.055 331.065 151.3 330.946 150.765 330.839C150.703 330.826 150.655 330.776 150.646 330.713C150.637 330.649 150.669 330.588 150.726 330.559C151.015 330.41 153.579 329.119 154.339 329.55C154.486 329.634 154.57 329.771 154.581 329.95C154.6 330.248 154.503 330.493 154.292 330.678C153.96 330.969 153.379 331.065 152.751 331.065Z" fill="#00A650"/>
<path d="M152.371 328.277C151.459 328.277 151.098 329.779 150.986 330.421C151.775 329.951 152.815 328.874 152.747 328.446C152.741 328.412 152.725 328.308 152.458 328.281C152.428 328.278 152.399 328.277 152.371 328.277ZM150.794 330.842C150.764 330.842 150.733 330.832 150.706 330.813C150.663 330.782 150.64 330.729 150.645 330.676C150.658 330.559 150.957 327.821 152.488 327.982C152.898 328.025 153.015 328.232 153.042 328.398C153.157 329.112 151.627 330.484 150.856 330.829C150.836 330.837 150.815 330.842 150.794 330.842Z" fill="#00A650"/>
<path d="M144.02 182.766L142.503 184.802C142.386 184.96 142.565 185.179 142.858 185.237L169.465 190.389C169.693 190.434 169.902 190.359 169.94 190.219L170.541 188.005C170.583 187.851 170.407 187.681 170.157 187.633L144.465 182.657C144.276 182.62 144.097 182.665 144.02 182.766Z" fill="#00A650"/>
<path d="M146.999 186.29L146.312 186.157C146.174 186.131 146.082 186.04 146.105 185.956L146.913 183.085C146.936 183.001 147.067 182.954 147.204 182.981L147.893 183.114C148.03 183.14 148.123 183.231 148.099 183.314L147.292 186.186C147.268 186.27 147.136 186.317 146.999 186.29Z" fill="#1A2E35"/>
<path d="M164.374 189.697L163.686 189.563C163.549 189.537 163.457 189.446 163.48 189.362L164.288 186.491C164.311 186.407 164.442 186.36 164.579 186.387L165.268 186.52C165.405 186.547 165.497 186.637 165.474 186.721L164.667 189.592C164.643 189.676 164.511 189.723 164.374 189.697Z" fill="#1A2E35"/>
</g>
</svg>
