<svg width="35" height="35" viewBox="0 0 35 35" fill="none" xmlns="http://www.w3.org/2000/svg">
<path d="M15.3125 12.0312H13.125V24.0625H15.3125V12.0312ZM21.875 12.0312H19.6875V24.0625H21.875V12.0312Z" fill="#484848"/>
<path d="M17.5 2.1875C19.5404 2.18687 21.5602 2.59651 23.4391 3.39205C25.3181 4.1876 27.0179 5.35282 28.4375 6.81844V2.1875H30.625V10.9375H21.875V8.75H27.2584C25.2093 6.47439 22.4279 4.98822 19.3973 4.5495C16.3666 4.11078 13.278 4.74721 10.6676 6.34831C8.05728 7.94941 6.09003 10.4141 5.10741 13.3144C4.12479 16.2147 4.18885 19.3676 5.28848 22.2256C6.3881 25.0836 8.45384 27.4663 11.1271 28.9601C13.8003 30.4538 16.9122 30.9642 19.9226 30.4028C22.9329 29.8413 25.6516 28.2434 27.6066 25.8864C29.5617 23.5294 30.6296 20.5623 30.625 17.5H32.8125C32.8125 20.5285 31.9144 23.489 30.2319 26.0072C28.5493 28.5253 26.1578 30.4879 23.3598 31.6469C20.5619 32.8059 17.483 33.1091 14.5127 32.5183C11.5424 31.9274 8.81393 30.4691 6.67243 28.3276C4.53094 26.1861 3.07257 23.4577 2.48173 20.4873C1.8909 17.517 2.19413 14.4382 3.3531 11.6402C4.51207 8.84217 6.47471 6.45068 8.99284 4.76812C11.511 3.08556 14.4715 2.1875 17.5 2.1875Z" fill="#484848"/>
</svg>
