<svg width="35" height="35" viewBox="0 0 35 35" fill="none" xmlns="http://www.w3.org/2000/svg">
<path d="M20.4167 14.4375V11.9583C21.2188 11.618 22.0393 11.3628 22.8784 11.1927C23.7164 11.0225 24.5973 10.9375 25.5209 10.9375C26.1528 10.9375 26.7726 10.9861 27.3802 11.0833C27.9879 11.1805 28.5834 11.3021 29.1667 11.4479V13.7812C28.5834 13.5625 27.9942 13.3987 27.3992 13.2898C26.8032 13.1799 26.1771 13.125 25.5209 13.125C24.5973 13.125 23.7101 13.2407 22.8594 13.4721C22.0087 13.7025 21.1945 14.0243 20.4167 14.4375ZM20.4167 22.4583V19.9791C21.2188 19.6389 22.0393 19.3837 22.8784 19.2135C23.7164 19.0434 24.5973 18.9583 25.5209 18.9583C26.1528 18.9583 26.7726 19.0069 27.3802 19.1041C27.9879 19.2014 28.5834 19.3229 29.1667 19.4687V21.8021C28.5834 21.5833 27.9942 21.4195 27.3992 21.3106C26.8032 21.2007 26.1771 21.1458 25.5209 21.1458C24.5973 21.1458 23.7101 21.2552 22.8594 21.4739C22.0087 21.6927 21.1945 22.0208 20.4167 22.4583ZM20.4167 18.4479V15.9687C21.2188 15.6285 22.0393 15.3732 22.8784 15.2031C23.7164 15.033 24.5973 14.9479 25.5209 14.9479C26.1528 14.9479 26.7726 14.9965 27.3802 15.0937C27.9879 15.191 28.5834 15.3125 29.1667 15.4583V17.7916C28.5834 17.5729 27.9942 17.4091 27.3992 17.3002C26.8032 17.1903 26.1771 17.1354 25.5209 17.1354C24.5973 17.1354 23.7101 17.2511 22.8594 17.4825C22.0087 17.7129 21.1945 18.0347 20.4167 18.4479ZM9.47921 23.3333C10.6216 23.3333 11.7338 23.4607 12.8159 23.7154C13.897 23.9711 14.9723 24.3541 16.0417 24.8646V10.5C15.0452 9.91665 13.9879 9.47915 12.8698 9.18748C11.7518 8.89581 10.6216 8.74998 9.47921 8.74998C8.60421 8.74998 7.73553 8.83505 6.87317 9.00519C6.00983 9.17533 5.17712 9.43053 4.37504 9.77081V24.2083C5.22573 23.9166 6.0706 23.6979 6.90962 23.5521C7.74768 23.4062 8.60421 23.3333 9.47921 23.3333ZM18.9584 24.8646C20.0278 24.3541 21.1036 23.9711 22.1857 23.7154C23.2668 23.4607 24.3785 23.3333 25.5209 23.3333C26.3959 23.3333 27.2529 23.4062 28.0919 23.5521C28.93 23.6979 29.7743 23.9166 30.625 24.2083V9.77081C29.823 9.43053 28.9907 9.17533 28.1284 9.00519C27.265 8.83505 26.3959 8.74998 25.5209 8.74998C24.3785 8.74998 23.2483 8.89581 22.1302 9.18748C21.0122 9.47915 19.9549 9.91665 18.9584 10.5V24.8646ZM17.5 29.1666C16.3334 28.243 15.0695 27.526 13.7084 27.0156C12.3473 26.5052 10.9375 26.25 9.47921 26.25C8.45837 26.25 7.45601 26.3837 6.47212 26.651C5.48726 26.9184 4.54518 27.2951 3.64587 27.7812C3.13546 28.0486 2.64351 28.0364 2.17004 27.7448C1.6956 27.4531 1.45837 27.0278 1.45837 26.4687V8.89581C1.45837 8.62845 1.52546 8.37324 1.65962 8.13019C1.79282 7.88713 1.9931 7.70484 2.26046 7.58331C3.37851 6.99998 4.54518 6.56248 5.76046 6.27081C6.97573 5.97915 8.21532 5.83331 9.47921 5.83331C10.8889 5.83331 12.2685 6.0156 13.618 6.38019C14.9664 6.74477 16.2605 7.29165 17.5 8.02081C18.7396 7.29165 20.0341 6.74477 21.3836 6.38019C22.7321 6.0156 24.1112 5.83331 25.5209 5.83331C26.7848 5.83331 28.0243 5.97915 29.2396 6.27081C30.4549 6.56248 31.6216 6.99998 32.7396 7.58331C33.007 7.70484 33.2077 7.88713 33.3419 8.13019C33.4751 8.37324 33.5417 8.62845 33.5417 8.89581V26.4687C33.5417 27.0278 33.305 27.4531 32.8315 27.7448C32.3571 28.0364 31.8646 28.0486 31.3542 27.7812C30.4549 27.2951 29.5128 26.9184 28.528 26.651C27.5441 26.3837 26.5417 26.25 25.5209 26.25C24.0625 26.25 22.6528 26.5052 21.2917 27.0156C19.9306 27.526 18.6667 28.243 17.5 29.1666Z" fill="#484848"/>
</svg>
