<svg width="35" height="35" viewBox="0 0 35 35" fill="none" xmlns="http://www.w3.org/2000/svg">
<path d="M13.5479 4.73961L7.52498 9.80003L5.83331 7.78753L11.8708 2.72711L13.5479 4.73961ZM32.0833 7.80211L30.3916 9.81461L24.3541 4.73961L26.0458 2.72711L32.0833 7.80211ZM18.9583 5.83336C22.0525 5.83336 25.02 7.06253 27.2079 9.25045C29.3958 11.4384 30.625 14.4058 30.625 17.5C30.625 20.5942 29.3958 23.5617 27.2079 25.7496C25.02 27.9375 22.0525 29.1667 18.9583 29.1667C15.8641 29.1667 12.8967 27.9375 10.7087 25.7496C8.52081 23.5617 7.29165 20.5942 7.29165 17.5C7.29165 14.4058 8.52081 11.4384 10.7087 9.25045C12.8967 7.06253 15.8641 5.83336 18.9583 5.83336ZM18.9583 8.75003C16.6377 8.75003 14.4121 9.6719 12.7711 11.3128C11.1302 12.9538 10.2083 15.1794 10.2083 17.5C10.2083 19.8207 11.1302 22.0463 12.7711 23.6872C14.4121 25.3282 16.6377 26.25 18.9583 26.25C21.279 26.25 23.5046 25.3282 25.1455 23.6872C26.7864 22.0463 27.7083 19.8207 27.7083 17.5C27.7083 15.1794 26.7864 12.9538 25.1455 11.3128C23.5046 9.6719 21.279 8.75003 18.9583 8.75003ZM17.5 10.9375H19.6875V17.5438L24.3833 19.6875L23.4791 21.6709L17.5 18.9584V10.9375ZM1.45831 20.4167C1.45831 16.7709 3.10623 13.5625 5.70206 11.4188C4.82613 13.3264 4.3734 15.4009 4.37498 17.5L4.46248 19.1479L4.37498 20.4167C4.37498 23.7417 6.22706 26.6292 8.95415 28.1167C10.85 29.8959 13.2271 31.1938 15.8812 31.7625C14.9916 31.9667 14.0729 32.0834 13.125 32.0834C10.0308 32.0834 7.06333 30.8542 4.8754 28.6663C2.68748 26.4783 1.45831 23.5109 1.45831 20.4167Z" fill="#484848"/>
</svg>
