<svg width="35" height="35" viewBox="0 0 35 35" fill="none" xmlns="http://www.w3.org/2000/svg">
<g clip-path="url(#clip0_29_15)">
<path d="M10.3906 5.46875V2.1875C10.3906 1.75238 10.5635 1.33508 10.8712 1.0274C11.1788 0.719726 11.5961 0.546875 12.0313 0.546875C12.4664 0.546875 12.8837 0.719726 13.1914 1.0274C13.499 1.33508 13.6719 1.75238 13.6719 2.1875V5.46875C13.6719 5.90387 13.499 6.32117 13.1914 6.62885C12.8837 6.93652 12.4664 7.10938 12.0313 7.10938C11.5961 7.10938 11.1788 6.93652 10.8712 6.62885C10.5635 6.32117 10.3906 5.90387 10.3906 5.46875ZM17.5 7.10938C17.9351 7.10938 18.3524 6.93652 18.6601 6.62885C18.9678 6.32117 19.1406 5.90387 19.1406 5.46875V2.1875C19.1406 1.75238 18.9678 1.33508 18.6601 1.0274C18.3524 0.719726 17.9351 0.546875 17.5 0.546875C17.0649 0.546875 16.6476 0.719726 16.3399 1.0274C16.0322 1.33508 15.8594 1.75238 15.8594 2.1875V5.46875C15.8594 5.90387 16.0322 6.32117 16.3399 6.62885C16.6476 6.93652 17.0649 7.10938 17.5 7.10938ZM22.9688 7.10938C23.4039 7.10938 23.8212 6.93652 24.1289 6.62885C24.4365 6.32117 24.6094 5.90387 24.6094 5.46875V2.1875C24.6094 1.75238 24.4365 1.33508 24.1289 1.0274C23.8212 0.719726 23.4039 0.546875 22.9688 0.546875C22.5336 0.546875 22.1163 0.719726 21.8087 1.0274C21.501 1.33508 21.3281 1.75238 21.3281 2.1875V5.46875C21.3281 5.90387 21.501 6.32117 21.8087 6.62885C22.1163 6.93652 22.5336 7.10938 22.9688 7.10938ZM34.3438 14.4375L30.625 17.2266V25.1562C30.625 26.4616 30.1065 27.7135 29.1834 28.6365C28.2604 29.5596 27.0085 30.0781 25.7031 30.0781H9.29688C7.99152 30.0781 6.73962 29.5596 5.81659 28.6365C4.89356 27.7135 4.37501 26.4616 4.37501 25.1562V17.2266L0.656257 14.4375C0.30816 14.1764 0.0780312 13.7878 0.0164958 13.357C-0.0450396 12.9263 0.0670592 12.4887 0.328132 12.1406C0.589204 11.7925 0.977865 11.5624 1.40861 11.5009C1.83936 11.4393 2.27691 11.5514 2.62501 11.8125L4.37501 13.125V12.0312C4.3786 11.3072 4.66784 10.6137 5.17986 10.1017C5.69188 9.58971 6.38529 9.30047 7.10938 9.29688H27.8906C28.6147 9.30047 29.3081 9.58971 29.8202 10.1017C30.3322 10.6137 30.6214 11.3072 30.625 12.0312V13.125L32.375 11.8125C32.7231 11.5514 33.1607 11.4393 33.5914 11.5009C34.0222 11.5624 34.4108 11.7925 34.6719 12.1406C34.933 12.4887 35.0451 12.9263 34.9835 13.357C34.922 13.7878 34.6919 14.1764 34.3438 14.4375ZM27.3438 12.5781H7.65626V25.1562C7.65626 25.5914 7.82911 26.0087 8.13679 26.3163C8.44446 26.624 8.86176 26.7969 9.29688 26.7969H25.7031C26.1383 26.7969 26.5556 26.624 26.8632 26.3163C27.1709 26.0087 27.3438 25.5914 27.3438 25.1562V12.5781Z" fill="#484848"/>
</g>
<defs>
<clipPath id="clip0_29_15">
<rect width="35" height="35" fill="white"/>
</clipPath>
</defs>
</svg>
