<svg width="35" height="35" viewBox="0 0 35 35" fill="none" xmlns="http://www.w3.org/2000/svg">
<path d="M22.9382 11.97C22.2484 11.916 21.5075 12.0808 20.3729 12.5139C20.4692 12.4775 19.2909 12.9369 18.9613 13.0535C18.2292 13.3087 17.6269 13.4487 16.9517 13.4487C16.2838 13.4487 15.6684 13.3146 14.9596 13.0769C14.7121 12.992 14.4666 12.9016 14.2232 12.8056C14.1036 12.7589 13.6661 12.5839 13.5698 12.5475C12.6248 12.1771 12.0925 12.0371 11.6507 12.0487C9.97065 12.0706 8.37961 13.0404 7.45649 14.6475C5.57232 17.92 6.61503 23.8335 9.36982 27.8177C10.8369 29.9235 11.639 30.676 11.9627 30.6658C12.2865 30.6512 12.5242 30.5827 13.1046 30.3377L13.3482 30.2341C14.8138 29.6085 15.8419 29.3329 17.3892 29.3329C18.8782 29.3329 19.8727 29.6041 21.28 30.2108L21.525 30.3158C22.1054 30.5637 22.3154 30.6191 22.68 30.6104C23.2021 30.6031 23.8452 30.0023 25.2729 27.9066C25.6638 27.3364 26.0094 26.7356 26.3084 26.1275C26.1119 25.9656 25.9212 25.7968 25.7367 25.6214C23.8569 23.8306 22.6946 21.4156 22.6625 18.4319C22.6311 16.2242 23.3568 14.0723 24.7188 12.3346C24.1471 12.1235 23.5467 12.0006 22.9382 11.97ZM23.1642 9.06206C24.1967 9.13206 27.1542 9.44706 29.0792 12.2646C28.9217 12.3521 25.5442 14.3121 25.5792 18.4071C25.6317 23.3071 29.8667 24.9346 29.9192 24.9521C29.8842 25.0746 29.2367 27.2796 27.6792 29.5546C26.3317 31.5321 24.9317 33.4921 22.7267 33.5271C20.5567 33.5796 19.8567 32.2496 17.3892 32.2496C14.9042 32.2496 14.1342 33.4921 12.0867 33.5796C9.95169 33.6496 8.34169 31.4446 6.9767 29.4846C4.1942 25.4596 2.0767 18.1446 4.9292 13.1921C6.3467 10.7246 8.8667 9.16706 11.6142 9.13206C13.6967 9.07956 15.6742 10.5321 16.9517 10.5321C18.2117 10.5321 20.4692 8.85206 23.1642 9.06206ZM21.5017 6.40206C20.3642 7.76706 18.5092 8.83456 16.7067 8.69456C16.4617 6.83956 17.3717 4.89706 18.4217 3.68956C19.5942 2.32456 21.5542 1.30956 23.1817 1.23956C23.3917 3.12956 22.6392 5.03706 21.5017 6.40206Z" fill="#484848"/>
</svg>
