<svg width="18" height="21" viewBox="0 0 18 21" fill="none" xmlns="http://www.w3.org/2000/svg">
<path fill-rule="evenodd" clip-rule="evenodd" d="M14.9495 3.54104C15.0999 4.3972 14.9132 5.27836 14.4285 5.99994H16.5C16.8977 6.00034 17.279 6.1585 17.5602 6.43972C17.8414 6.72094 17.9996 7.10224 18 7.49994V10.4999C17.9996 10.8976 17.8414 11.2789 17.5602 11.5602C17.279 11.8414 16.8977 11.9995 16.5 11.9999V19.4999C16.4996 19.8976 16.3414 20.2789 16.0602 20.5602C15.779 20.8414 15.3977 20.9995 15 20.9999H3C2.6023 20.9995 2.221 20.8414 1.93978 20.5602C1.65856 20.2789 1.5004 19.8976 1.5 19.4999V11.9999C1.1023 11.9995 0.720997 11.8414 0.439779 11.5602C0.15856 11.2789 0.000397108 10.8976 0 10.4999V7.49994C0.000397108 7.10224 0.15856 6.72094 0.439779 6.43972C0.720997 6.1585 1.1023 6.00034 1.5 5.99994H3.5715C3.08678 5.27836 2.90009 4.3972 3.05053 3.54104C3.20097 2.68488 3.67687 1.92015 4.37855 1.40703C5.08022 0.893908 5.95323 0.67221 6.81471 0.788373C7.67619 0.904536 8.4593 1.34955 9 2.03019C9.5407 1.34955 10.3238 0.904536 11.1853 0.788373C12.0468 0.67221 12.9198 0.893908 13.6215 1.40703C14.3231 1.92015 14.799 2.68488 14.9495 3.54104ZM10.066 3.08325C9.85997 3.39159 9.75 3.7541 9.75 4.12494V5.99994H11.625C11.9958 5.99994 12.3584 5.88998 12.6667 5.68395C12.975 5.47792 13.2154 5.18508 13.3573 4.84247C13.4992 4.49986 13.5363 4.12286 13.464 3.75915C13.3916 3.39543 13.213 3.06134 12.9508 2.79912C12.6886 2.53689 12.3545 2.35832 11.9908 2.28597C11.6271 2.21362 11.2501 2.25075 10.9075 2.39267C10.5649 2.53458 10.272 2.77491 10.066 3.08325ZM7.70017 2.79977C7.34867 2.44827 6.8721 2.25054 6.375 2.24994C5.87772 2.24994 5.40081 2.44749 5.04917 2.79912C4.69754 3.15075 4.5 3.62766 4.5 4.12494C4.5 4.62222 4.69754 5.09914 5.04917 5.45077C5.40081 5.8024 5.87772 5.99994 6.375 5.99994H8.25V4.12494C8.2494 3.62784 8.05167 3.15128 7.70017 2.79977ZM15.0007 19.4999L15 11.9999H9.75V19.4999H15.0007ZM16.5007 10.4999L16.5 7.49994H9.75V10.4999H16.5007ZM8.25 7.49994H1.5V10.4999H8.25V7.49994ZM8.25 11.9999H3V19.4999H8.25V11.9999Z" fill="#5F5F5F"/>
</svg>
