<svg width="24" height="25" viewBox="0 0 24 25" fill="none" xmlns="http://www.w3.org/2000/svg">
<g clip-path="url(#clip0_238_2107)">
<path d="M15.75 0.523438L24 4.64844V13.8477L22.5 13.0977V6.32422L16.5 9.32422V12.3477L15 13.0977V9.32422L9 6.32422V8.98438L7.5 8.23438V4.64844L15.75 0.523438ZM15.75 8.02344L17.8242 6.98047L12.3984 3.875L9.92578 5.11719L15.75 8.02344ZM19.4414 6.18359L21.5742 5.11719L15.75 2.19922L14.0039 3.07812L19.4414 6.18359ZM13.5 13.8477L12 14.5977V14.5859L7.5 16.8359V22.168L12 19.9062V21.5938L6.75 24.2188L0 20.832V12.9102L6.75 9.53516L13.5 12.9102V13.8477ZM6 22.168V16.8359L1.5 14.5859V19.9062L6 22.168ZM6.75 15.5352L11.0742 13.3789L6.75 11.2109L2.42578 13.3789L6.75 15.5352ZM13.5 15.5234L18.75 12.8984L24 15.5234V21.6992L18.75 24.3242L13.5 21.6992V15.5234ZM18 22.2734V18.6992L15 17.1992V20.7734L18 22.2734ZM22.5 20.7734V17.1992L19.5 18.6992V22.2734L22.5 20.7734ZM18.75 17.3984L21.5742 15.9805L18.75 14.5742L15.9258 15.9805L18.75 17.3984Z" fill="#5F5F5F"/>
</g>
<defs>
<clipPath id="clip0_238_2107">
<rect width="24" height="24" fill="white" transform="translate(0 0.5)"/>
</clipPath>
</defs>
</svg>
