<svg width="24" height="25" viewBox="0 0 24 25" fill="none" xmlns="http://www.w3.org/2000/svg">
<path d="M14 20.5V23M10 20.5V23M14 4.5V2M10 4.5V2M7 12.5H4.5M19.5 12.5H17M7 7H4.5M19.5 7H17M7 18H4.5M19.5 18H17M7 19.9V5.1C7 4.94087 7.06321 4.78826 7.17574 4.67574C7.28826 4.56321 7.44087 4.5 7.6 4.5H16.4C16.4788 4.5 16.5568 4.51552 16.6296 4.54567C16.7024 4.57583 16.7685 4.62002 16.8243 4.67574C16.88 4.73145 16.9242 4.79759 16.9543 4.87039C16.9845 4.94319 17 5.02121 17 5.1V19.9C17 19.9788 16.9845 20.0568 16.9543 20.1296C16.9242 20.2024 16.88 20.2685 16.8243 20.3243C16.7685 20.38 16.7024 20.4242 16.6296 20.4543C16.5568 20.4845 16.4788 20.5 16.4 20.5H7.6C7.44087 20.5 7.28826 20.4368 7.17574 20.3243C7.06321 20.2117 7 20.0591 7 19.9Z" stroke="#5F5F5F" stroke-width="1.5" stroke-linecap="round" stroke-linejoin="round"/>
</svg>
