<svg width="35" height="35" viewBox="0 0 35 35" fill="none" xmlns="http://www.w3.org/2000/svg">
<path d="M21.875 2.91669H5.83333C5.02792 2.91669 4.375 3.5696 4.375 4.37502V30.625C4.375 31.4304 5.02792 32.0834 5.83333 32.0834H21.875C22.6804 32.0834 23.3333 31.4304 23.3333 30.625V4.37502C23.3333 3.5696 22.6804 2.91669 21.875 2.91669Z" stroke="#484848" stroke-width="4" stroke-linecap="round" stroke-linejoin="round"/>
<path d="M29.1666 21.875H17.5C15.8891 21.875 14.5833 23.1808 14.5833 24.7917C14.5833 26.4025 15.8891 27.7083 17.5 27.7083H29.1666C30.7775 27.7083 32.0833 26.4025 32.0833 24.7917C32.0833 23.1808 30.7775 21.875 29.1666 21.875Z" stroke="#484848" stroke-width="4" stroke-linecap="round" stroke-linejoin="round"/>
<path d="M8.75002 10.2084C9.55544 10.2084 10.2084 9.55544 10.2084 8.75002C10.2084 7.94461 9.55544 7.29169 8.75002 7.29169C7.94461 7.29169 7.29169 7.94461 7.29169 8.75002C7.29169 9.55544 7.94461 10.2084 8.75002 10.2084Z" fill="#484848"/>
<path d="M8.75002 14.5834C9.55544 14.5834 10.2084 13.9304 10.2084 13.125C10.2084 12.3196 9.55544 11.6667 8.75002 11.6667C7.94461 11.6667 7.29169 12.3196 7.29169 13.125C7.29169 13.9304 7.94461 14.5834 8.75002 14.5834Z" fill="#484848"/>
<path d="M8.75002 18.9584C9.55544 18.9584 10.2084 18.3054 10.2084 17.5C10.2084 16.6946 9.55544 16.0417 8.75002 16.0417C7.94461 16.0417 7.29169 16.6946 7.29169 17.5C7.29169 18.3054 7.94461 18.9584 8.75002 18.9584Z" fill="#484848"/>
<path d="M13.8541 10.2084C14.6596 10.2084 15.3125 9.55544 15.3125 8.75002C15.3125 7.94461 14.6596 7.29169 13.8541 7.29169C13.0487 7.29169 12.3958 7.94461 12.3958 8.75002C12.3958 9.55544 13.0487 10.2084 13.8541 10.2084Z" fill="#484848"/>
<path d="M13.8541 14.5834C14.6596 14.5834 15.3125 13.9304 15.3125 13.125C15.3125 12.3196 14.6596 11.6667 13.8541 11.6667C13.0487 11.6667 12.3958 12.3196 12.3958 13.125C12.3958 13.9304 13.0487 14.5834 13.8541 14.5834Z" fill="#484848"/>
<path d="M13.8541 18.9584C14.6596 18.9584 15.3125 18.3054 15.3125 17.5C15.3125 16.6946 14.6596 16.0417 13.8541 16.0417C13.0487 16.0417 12.3958 16.6946 12.3958 17.5C12.3958 18.3054 13.0487 18.9584 13.8541 18.9584Z" fill="#484848"/>
<path d="M18.9583 10.2084C19.7637 10.2084 20.4167 9.55544 20.4167 8.75002C20.4167 7.94461 19.7637 7.29169 18.9583 7.29169C18.1529 7.29169 17.5 7.94461 17.5 8.75002C17.5 9.55544 18.1529 10.2084 18.9583 10.2084Z" fill="#484848"/>
<path d="M18.9583 14.5834C19.7637 14.5834 20.4167 13.9304 20.4167 13.125C20.4167 12.3196 19.7637 11.6667 18.9583 11.6667C18.1529 11.6667 17.5 12.3196 17.5 13.125C17.5 13.9304 18.1529 14.5834 18.9583 14.5834Z" fill="#484848"/>
<path d="M18.9583 18.9584C19.7637 18.9584 20.4167 18.3054 20.4167 17.5C20.4167 16.6946 19.7637 16.0417 18.9583 16.0417C18.1529 16.0417 17.5 16.6946 17.5 17.5C17.5 18.3054 18.1529 18.9584 18.9583 18.9584Z" fill="#484848"/>
</svg>
